<?xml version="1.0" encoding="UTF-8" standalone="no"?>
<!-- Created with Inkscape (http://www.inkscape.org/) -->

<svg
   width="210mm"
   height="297mm"
   viewBox="0 0 210 297"
   version="1.1"
   id="svg32785"
   xmlns="http://www.w3.org/2000/svg"
   xmlns:svg="http://www.w3.org/2000/svg">
  <defs
     id="defs32782" />
  <g
     id="layer2">
    <ellipse
       style="fill:#ffffff;stroke:#000000;stroke-width:4.56825;stroke-miterlimit:4;stroke-dasharray:none;stroke-opacity:1"
       id="path22213"
       cx="105.93241"
       cy="158.04507"
       rx="95.96508"
       ry="95.86731" />
  </g>
  <g
     id="layer1">
    <g
       id="g32699"
       transform="matrix(0.58227782,0,0,0.60773882,-248.21922,782.29845)">
      <g
         id="g34226"
         transform="matrix(0.68598051,0,0,0.68598051,252.46167,-386.4173)"
         style="fill:none;fill-opacity:1">
        <g
           id="g34221"
           style="fill:none;fill-opacity:1">
          <path
             style="fill:none;fill-opacity:1;stroke:#000000;stroke-width:3.2747;stroke-linecap:butt;stroke-linejoin:miter;stroke-miterlimit:4;stroke-dasharray:none;stroke-opacity:1"
             d="m 523.29269,-808.75844 h -4.20459 l -4.4519,0.30878 -3.62749,0.9263 -3.4626,1.15785 -2.96795,0.84908 -4.4519,0.15438 h -5.44122 l -4.78169,-0.38593 c 0,0 -4.4519,-1.08068 -4.78168,-1.08068 -0.32977,0 -2.63817,-0.46315 -3.46262,-0.6947 -0.82441,-0.2316 -3.46257,-1.00349 -3.46257,-1.00349 l -2.30841,-2.16134 -0.82441,-1.23505 -1.07177,-0.9263 -1.48398,1.38946 -1.23664,0.6947 -0.98929,0.7719 -0.65954,1.77537 c 0,0 -0.24735,1.54383 -0.32979,1.8526 -0.0825,0.30875 -0.41223,2.16131 -0.32975,2.62445 0.0825,0.46316 0.24731,1.38945 0.24731,1.6982 0,0.30877 0.41223,2.08415 0.41223,2.08415 0,0 0.41219,2.16133 0.41219,2.54727 0,0.38597 0.16491,1.77541 0.24735,2.16134 0.0825,0.38596 0.16487,2.47011 0.0825,2.77887 -0.0825,0.30876 -0.0825,1.85256 -0.0825,2.54729 0,0.69471 -0.16492,2.70164 -0.16492,3.1648 0,0.46314 -0.24731,2.47011 -0.24731,3.01042 0,0.54033 -0.0825,2.62448 -0.16488,3.47359 -0.0825,0.84908 0,2.00694 -0.0825,2.54728 -0.0825,0.54033 -0.16492,1.92974 -0.16492,2.23852 0,0.30878 0.49467,1.69819 0.49467,1.69819 l 0.82445,1.31223 c 0,0 0.74198,1.46663 0.74198,2.00696 0,0.54035 -0.0825,2.00694 -0.0825,2.31572 v 2.00693 l 0.0825,1.8526 c 0,0 0.41219,0.69471 0.49466,1.08067 0.0825,0.38593 1.15417,1.23504 1.15417,1.23504 l 0.74201,1.92975 -0.16491,1.38945 -0.74198,1.31223 -0.5771,0.61752 0.82445,0.9263 0.98929,1.00345 -0.16487,1.08067 -1.1542,0.30877 -1.89619,0.23156 -2.72062,0.0772 -1.81374,0.1544 -2.80304,0.15438 -2.96795,0.61752 -1.97862,0.38596 -3.54504,1.00348 c 0,0 -1.89619,0.69471 -2.3084,0.77189 -0.41223,0.0772 -3.38016,0.23157 -3.70993,0.30876 -0.32978,0.0772 -3.38016,0.15439 -3.38016,0.15439 l -4.78169,-0.0772 -2.55572,0.15437 -1.23664,-0.38596 -0.57711,-0.7719 c 0,0 -0.0825,-2.31571 -0.0825,-2.62449 0,-0.30874 0.32977,-1.77537 0.32977,-1.77537 l 1.64885,-1.77538 c 0,0 1.23664,-1.15786 1.40154,-1.77537 0.16488,-0.61753 0,-1.23505 0.24731,-1.54383 0.24735,-0.30874 1.40153,-1.31223 2.0611,-1.54382 0.65954,-0.23155 2.47328,-0.77189 3.05038,-1.15785 0.5771,-0.38593 2.55572,-2.3929 2.88548,-2.70164 0.32977,-0.30878 1.07175,-1.08067 1.64886,-1.62101 0.57711,-0.54034 2.22596,-2.39292 2.22596,-2.39292 0,0 1.15421,-1.23504 1.23664,-1.77539 0.0825,-0.54033 0.0825,-2.47008 0.16488,-2.85604 0.0825,-0.38593 0.5771,-1.62101 0.5771,-1.62101 0,0 0.65954,-0.77189 0.90687,-1.15785 0.24734,-0.38594 -0.90687,-1.77538 -0.90687,-1.77538 l -1.07176,-2.85604 c 0,0 -1.89619,-2.70165 -2.22594,-3.47357 -0.32977,-0.7719 -0.82444,-2.62446 -1.23666,-3.85954 -0.41219,-1.23503 -0.98931,-3.55074 -1.40152,-4.86298 -0.41223,-1.31223 -0.98929,-7.56465 -1.15421,-8.64532 -0.16487,-1.08068 -0.9893,-4.24549 -1.31908,-5.94368 -0.32975,-1.6982 -0.74197,-5.40333 -0.74197,-5.40333 l -0.57711,-8.49095 -0.41222,-7.02436 c 0,0 0.41222,-3.70512 0.41222,-4.16827 0,-0.46315 0.41223,-3.47357 0.57711,-3.78234 0.16487,-0.30875 1.64885,-2.54728 1.97862,-3.24198 0.32978,-0.69473 1.89618,-3.01046 2.22597,-3.39639 0.32975,-0.38595 2.72058,-3.55078 2.72058,-3.55078 l 2.72064,-2.23852 2.63816,-1.31223 3.13282,-1.08067 2.39083,-1.00349 2.88552,-0.61752 3.13282,-0.23156 3.21526,-0.38596 c 0,0 3.05038,-0.0772 3.46261,-0.0772 0.41221,0 2.22596,0 2.55572,-0.0772 0.32978,-0.0772 0.98933,-0.23157 1.15419,-0.84909 0.16492,-0.61754 0.32979,-2.93326 0.32979,-2.93326 l 0.0825,-7.02427 0.41222,-5.9437 -0.0825,-1.54377 c 0,0 -0.82441,-0.92631 -0.90685,-1.38947 -0.0825,-0.46304 -0.41223,-1.7753 -0.41223,-2.23845 0,-0.46316 -0.41219,-5.78938 -0.41219,-5.78938 v -4.3226 l -0.24735,-2.08414 -0.49466,-1.46668 -0.32975,-1.23504 -0.90689,-1.38936 c 0,0 -0.65954,-1.69819 -0.82442,-2.08414 -0.16488,-0.38605 -0.5771,-2.31577 -0.5771,-2.62451 0,-0.30873 -0.24732,-1.62098 -0.32975,-2.00693 -0.0825,-0.38594 -0.32979,-1.46667 -0.41223,-1.85261 -0.0825,-0.38595 -0.41223,-1.38947 -0.41223,-1.6982 0,-0.30874 -0.24731,-0.46316 -0.41222,-1.23505 -0.16488,-0.77189 -0.41219,-1.46656 -0.41219,-1.46656 l -1.40154,-1.46668 c 0,0 -1.40153,-1.00341 -1.8962,-1.31225 -0.49462,-0.30873 -3.21525,-1.15783 -3.79235,-1.31215 -0.5771,-0.15444 -2.06106,-0.30882 -3.21526,-0.61758 -1.1542,-0.30875 -2.39085,-0.92627 -4.20459,-2.85604 -1.81374,-1.92983 -3.4626,-3.7051 -3.95726,-4.09108 -0.49463,-0.38591 -2.96795,-2.39297 -2.96795,-2.39297 l -3.21526,-2.54716 -2.7206,-3.01048 -2.30841,-1.92984 -3.21526,-2.77882 -1.23663,-1.9297 c 0,0 -0.74201,-1.38948 -0.98933,-1.69817 -0.24731,-0.30889 -2.72062,-2.00706 -3.13282,-2.39291 -0.41223,-0.38604 -2.63819,-1.62108 -3.38016,-2.47019 -0.74198,-0.84912 -2.22595,-2.62438 -2.80304,-3.16474 -0.5771,-0.54036 -3.29773,-2.70173 -3.95727,-3.31918 -0.65954,-0.61758 -3.54505,-3.39641 -3.79237,-3.70516 -0.24734,-0.30876 -4.45193,-5.55778 -4.45193,-5.55778 l -1.48395,-2.54728 -2.55572,-3.31918 c 0,0 -1.40155,-2.23853 -1.64887,-2.62438 -0.24731,-0.38605 -1.40152,-2.23859 -1.40152,-2.23859 l -1.89618,-2.93321 c 0,0 -1.23664,-0.92633 -1.56642,-1.62101 -0.32975,-0.6948 -2.63817,-4.32267 -2.63817,-4.32267 l -1.15419,-2.54729 -1.07177,-2.62451 -1.07176,-2.00699 -0.65954,-2.16124 0.32163,-2.08582 -0.69953,-1.96501 -3.26457,-0.21831 2.68158,33.5134 -44.18823,3.05645 -4.4305,-71.93894 44.42144,-3.7115 1.51571,33.84075 5.47978,-0.43663 2.56505,-2.72907 c 0,0 1.98204,-1.7467 2.44841,-1.96501 0.46637,-0.21831 3.38116,-1.41913 3.38116,-1.41913 l 2.56502,-0.10913 2.44843,-0.21831 2.44842,2.40157 c 0,0 1.98208,0.43663 2.56503,0.43663 0.58295,0 2.09864,1.31001 2.09864,1.31001 l 0.34977,2.07413 39.87439,-0.54588 h 65.64113 l 84.64561,-0.21831 1.1659,-1.52826 1.6323,-1.31 2.68162,-0.87332 1.86547,-1.20082 c 0,0 1.51568,-1.52822 2.09862,-1.74662 0.58296,-0.2183 2.44843,-0.1091 2.44843,-0.1091 0,0 0.81614,0.5458 1.98209,0.6549 1.16589,0.1092 1.74885,-0.3274 2.565,0 0.81614,0.32757 2.09866,1.41913 2.09866,1.41913 l 1.98205,0.7642 c 2.24079,4.37306 1.34706,-0.77684 3.05909,-0.17858 0.52258,0.18262 1.23511,-1.87095 2.42072,0.56064 l 0.81612,-31.60289 h 45.82058 l -0.46636,75.65047 -44.42147,-0.10906 -1.16591,-31.00252 -2.7982,-0.98251 -1.04932,0.87326 0.58295,2.62001 c 0,0 -0.34977,1.41913 -0.46636,1.96488 -0.11659,0.54588 -1.39911,3.27489 -1.51569,3.71158 -0.11661,0.4365 -2.15696,4.93962 -2.15696,4.93962 l -1.48655,3.05664 -1.98206,2.86554 -5.40642,7.42335 -2.80306,4.3999 c 0,0 -1.1542,1.69817 -1.64884,2.16125 -0.49467,0.46313 -2.72062,2.85604 -2.72062,2.85604 0,0 -0.90686,0.92627 -1.40152,1.54385 -0.49467,0.61758 -1.97862,1.62102 -2.22597,1.92984 -0.24732,0.30876 -2.7206,1.62088 -3.05039,1.9297 -0.32975,0.30876 -2.30839,1.4667 -2.72058,1.85255 -0.41223,0.38592 -1.40156,1.54386 -1.81376,1.85249 -0.41221,0.30888 -2.96793,1.92983 -2.96793,1.92983 l -1.89619,0.92621 -1.64885,2.31575 -1.15422,2.08415 -1.40152,2.62451 -2.96793,1.77532 -1.73131,0.92628 -2.30841,1.08078 -2.14349,1.62095 -1.48399,1.00343 -2.80304,1.54379 -1.23664,1.08084 -0.90688,1.92971 0.49466,2.08402 -1.31907,1.62101 -2.22597,0.92628 c 0,0 -1.89619,1.23503 -2.22597,1.46669 -0.32976,0.23154 -1.73127,1.00343 -2.22594,1.23503 -0.49466,0.23154 -2.63818,1.38935 -2.63818,1.38935 0,0 -1.56641,0.38605 -1.89618,0.54038 -0.32976,0.15442 -0.82442,0.0771 -1.89619,1.00352 -1.07176,0.9262 -0.82441,2.16135 -0.82441,2.16135 l -0.0825,7.25584 v 3.08767 3.16476 c 0,0.30884 -0.32978,2.08414 -0.49465,2.70172 -0.16488,0.61747 -0.65954,3.24197 -0.74199,3.62792 -0.0825,0.38594 -0.5771,2.16135 -0.5771,2.16135 0,0 -0.57709,2.47009 -0.74201,3.01045 -0.16487,0.54036 -0.49462,2.39288 -0.49462,2.39288 l -0.90689,2.70171 c 0,0 -0.16488,1.46657 -0.0825,1.7753 0.0825,0.30874 0,5.40333 0,5.40333 v 5.71217 c 0,0 -0.41223,2.23853 -0.41223,2.70167 0,0.46316 -0.0825,3.24202 -0.0825,3.55077 0,0.30877 0.49467,3.31919 0.49467,3.31919 l 0.65953,1.23505 c 0,0 2.88551,0.54033 3.2977,0.54033 0.41222,0 3.54505,0.0772 3.87483,0 0.32976,-0.0772 3.38014,0.30877 4.36946,0.30877 0.98933,0 4.12215,0.61752 4.12215,0.61752 l 2.96795,0.38596 1.48395,0.54031 2.55572,0.77192 2.22597,1.23505 2.8855,1.38941 2.3084,1.00348 1.5664,1.23505 1.40155,1.46663 1.23664,1.23504 1.81374,2.31571 c 0,0 0.82442,1.54382 1.15418,2.31572 0.32978,0.77192 0.90688,2.16133 0.98933,2.62448 0.0825,0.46315 0.49465,1.77538 0.65953,2.16134 0.16488,0.38593 0.65955,3.01043 0.65955,3.01043 l 0.49465,3.242 v 3.47357 c 0,0 -0.16487,2.31571 -0.16487,2.93322 0,0.61753 -0.57711,4.47707 -0.57711,4.47707 0,0 -0.65954,3.01042 -0.74197,3.47356 -0.0825,0.46315 -0.74201,3.24201 -0.74201,3.24201 l -6.43052,14.74338 -1.73131,4.78579 -1.48395,2.93325 -0.98933,2.62448 c 0,0 -0.90689,2.00694 -1.07177,2.47009 -0.16487,0.46315 -1.40151,3.08763 -1.56639,3.39637 -0.1649,0.30878 -0.90688,2.16135 -0.90688,2.16135 l 0.32978,1.69819 0.24731,1.621 c 0,0 0.16489,1.15786 0.32979,1.4666 0.16488,0.30878 1.31908,2.16134 1.31908,2.16134 l 2.7206,2.62449 1.97862,0.7719 2.3084,1.77537 c 0,0 0.32979,0.77192 0.90689,0.9263 0.5771,0.15437 2.63815,1.54382 2.63815,1.54382 l 1.81376,1.85257 1.07175,1.85255 0.49467,3.01046 c 0,0 -0.32979,0.92626 -0.41223,1.54378 -0.0825,0.61752 -0.5771,1.46663 -0.5771,1.46663 l -13.19085,-0.6947 -2.7206,-0.23158 -2.96795,-0.8491 -3.95727,-0.69473 c 0,0 -2.80303,-0.69471 -3.38014,-0.69471 -0.5771,0 -4.53436,-0.46314 -4.53436,-0.46314 l -2.22595,0.0772 -2.06108,-0.61755 1.23664,-1.4666 1.07177,-1.62101 c 0,0 -1.07177,-1.31223 -1.23664,-2.00693 -0.16488,-0.69473 -0.74198,-1.38945 -0.74198,-1.69819 0,-0.30878 0.24731,-1.46663 0.5771,-2.00697 0.32975,-0.54034 1.40152,-2.08416 1.40152,-2.08416 0,0 0.0825,-2.16131 0.0825,-2.70164 0,-0.54034 -0.16489,-3.55079 -0.16489,-3.55079 0,0 0.5771,-2.23852 0.82442,-2.54726 0.24735,-0.30878 1.48399,-1.08067 1.56643,-1.62101 0.0825,-0.54033 0.5771,-2.08415 0.5771,-3.01042 0,-0.92629 0.82441,-6.79275 0.82441,-6.79275 l -0.4122,-4.2455 -0.82444,-3.39639 -0.90685,-2.62445 0.0825,-3.24201 c 0,0 -0.41223,-3.0876 -0.24734,-3.62795 0.1649,-0.54033 0.82444,-2.00696 0.90688,-2.62448 0.0825,-0.61752 0.82441,-2.47009 0.90686,-2.77886 0.0825,-0.30875 0.90688,-2.31571 0.90688,-2.31571 l -0.65954,-1.00348 -2.39085,0.15437 c 0,0 -1.81374,0.77192 -2.55572,1.23507 -0.742,0.46312 -2.80306,1.77537 -2.80306,1.77537 0,0 -2.22597,1.54379 -2.55572,1.62102 -0.32979,0.0772 -4.78169,0.92626 -4.78169,0.92626 0,0 -3.21526,0.38596 -3.54504,0.38596 -0.32976,0 -7.17254,-0.15437 -7.17254,-0.15437 0,0 -5.77097,-0.61752 -6.84273,-0.61752 -1.07177,0 -5.3588,-0.23159 -5.3588,-0.23159 l -4.61678,-0.61752 z"
             id="path24668" />
        </g>
        <path
           style="fill:none;fill-opacity:1;stroke:#000000;stroke-width:3.2747;stroke-linecap:butt;stroke-linejoin:miter;stroke-miterlimit:4;stroke-dasharray:none;stroke-opacity:1"
           d="m 413.63136,-980.52341 3.9641,-1.7467 2.33184,-2.07407 1.16592,-1.96489 1.16591,-1.20088 45.93716,-0.87325 49.90126,-0.10919 29.14792,-0.43669 66.34072,-0.21831 3.84752,3.49326 1.3991,1.74657 0.34978,2.07414 -1.28252,2.07407 c 0,0 -1.04932,1.41913 -1.6323,2.07413 -0.58294,0.65507 -1.63226,1.63745 -1.63226,1.63745 l -1.98207,1.96501 -2.05383,1.98927 -2.39084,1.85255 c 0,0 -2.22596,1.92977 -2.34962,2.12279 -0.12366,0.19296 -2.43207,1.50522 -2.7206,1.69817 -0.28857,0.19296 -4.57558,2.47007 -4.57558,2.47007 0,0 -2.76182,2.19995 -2.96795,2.35433 -0.2061,0.15444 -2.26715,1.31225 -2.7206,1.62101 -0.45344,0.30876 -4.58866,3.35795 -4.58866,3.35795 l -1.4574,1.80126 -1.3991,1.8012 c 0,0 -1.34081,1.69207 -1.51569,1.96488 -0.17487,0.27294 -1.10761,1.41919 -1.51568,1.85582 -0.40807,0.43675 -1.92376,1.91038 -2.50674,2.34701 -0.58295,0.43663 -2.04034,1.41913 -2.565,1.91038 -0.52466,0.49126 -3.08969,3.38408 -3.08969,3.38408 0,0 -2.85649,1.41913 -3.26457,1.63745 -0.40808,0.21831 -2.33184,0.60044 -2.9148,0.76419 -0.58294,0.16369 -2.85649,0.3275 -3.8475,0.49125 -0.99103,0.16369 -3.26457,0.60032 -3.96414,0.81869 -0.69954,0.21832 -3.49774,0.76413 -4.37218,1.14619 -0.87445,0.38213 -3.78922,1.36464 -3.78922,1.36464 0,0 -2.68162,0.92788 -3.08969,1.14613 -0.40808,0.21844 -3.03137,0.60044 -3.78924,0.9825 -0.75785,0.38213 -2.85649,1.52832 -3.26457,1.80126 -0.40808,0.27281 -1.80717,1.85582 -2.33182,2.29245 -0.52467,0.43663 -1.74889,0.87325 -1.74889,0.87325 l -1.28252,0.0552 -0.87442,-0.65507 c 0,0 0.29147,-1.69194 0.34976,-2.01951 0.0583,-0.32744 -0.0583,-1.96488 -0.0583,-1.96488 0,0 -0.46637,-0.92788 -0.58296,-1.14626 -0.11657,-0.21838 -1.39909,-0.81875 -1.39909,-0.81875 0,0 -0.75786,-0.60038 -0.81615,-1.20082 -0.0583,-0.60038 -0.0583,-1.14619 0,-1.52826 0.0583,-0.38206 0.2332,-2.01951 0.2332,-2.51076 0,-0.49125 0.0583,-2.34701 0,-2.83826 -0.0583,-0.49125 -0.34978,-3.00202 -0.34978,-3.00202 l -1.63231,-2.18332 -2.7982,-2.23782 c 0,0 -3.55602,-1.63745 -3.9641,-1.8012 -0.40808,-0.16368 -4.1973,-0.87325 -4.60538,-0.92788 -0.40807,-0.0552 -3.03137,-0.38212 -4.19731,-0.3275 -1.16589,0.0546 -4.1973,0.87325 -4.43046,0.92788 -0.2332,0.0552 -2.21525,0.60044 -2.62333,0.87325 -0.40808,0.27294 -2.04034,1.69207 -2.39012,2.01964 -0.34979,0.32744 -1.6323,1.74657 -2.04037,2.40151 -0.40805,0.65507 -1.4574,3.1112 -1.51569,3.60245 -0.0583,0.49126 -0.17488,1.91045 -0.11659,2.56539 0.0583,0.65494 -0.0583,3.1657 -0.11659,3.65696 -0.0583,0.49125 -0.11661,1.20081 -0.40806,1.96501 -0.2915,0.76406 -0.93275,1.80119 -1.10764,2.34694 -0.17488,0.54582 -0.40805,1.69207 -0.34976,2.01958 0.0583,0.32743 0.40808,1.20075 0.58296,1.74656 0.17487,0.54588 0.23316,1.52826 0.23316,1.52826 l -0.81612,0.16382 -1.3991,0.16375 c 0,0 -1.16594,0.10918 -1.57401,0.3275 -0.40807,0.21831 -1.04931,0.32744 -1.04931,0.32744 0,0 -1.34082,-1.20069 -1.80719,-1.52826 -0.46636,-0.3275 -2.04033,-1.30994 -2.39012,-1.63745 -0.34977,-0.32756 -1.28252,-1.47375 -2.27354,-1.80119 -0.99103,-0.3275 -2.39012,-0.81876 -3.03137,-0.98251 -0.64127,-0.16368 -2.50675,-0.54581 -3.32287,-0.65494 -0.81614,-0.10925 -1.98206,-0.32756 -1.98206,-0.32756 0,0 -1.74887,-0.76407 -2.33185,-0.92788 -0.58295,-0.16369 -2.97307,-0.87325 -3.67264,-0.98251 -0.69953,-0.10912 -2.565,-0.382 -3.32286,-0.43662 -0.75783,-0.0552 -4.37218,-0.16369 -4.37218,-0.16369 l -2.15696,-0.9825 -3.55603,-2.56539 -3.32286,-1.96488 -2.44844,-2.01964 -3.55603,-3.22033 -1.57402,-2.45613 c 0,0 -1.51568,-2.40164 -1.57397,-2.67445 -0.0583,-0.27294 -0.40807,-1.41913 -0.99103,-1.69207 -0.58295,-0.27294 -3.78922,-2.61995 -3.78922,-2.61995 0,0 -2.27355,-1.91039 -2.50675,-2.01951 -0.23316,-0.10913 -3.78922,-2.23782 -3.78922,-2.23782 l -3.20628,-2.40164 -4.43046,-2.67458 -2.68163,-1.692 -2.04034,-1.91039 -2.15695,-1.58282 -2.04036,-2.12876 c 0,0 -1.98207,-1.52819 -2.44844,-1.91038 -0.46637,-0.382 -2.27351,-1.91026 -2.50671,-2.07407 -0.23316,-0.16375 -2.33184,-1.4737 -2.33184,-1.4737 z"
           id="path24783" />
      </g>
      <path
         style="fill:#000000;fill-opacity:1;stroke:none;stroke-width:2.83173;stroke-miterlimit:4;stroke-dasharray:none"
         d="m 553.21476,-902.80288 c 0,-0.69904 0.22726,-1.1848 0.78381,-1.67523 0.4311,-0.3799 1.03493,-1.22564 1.34182,-1.87939 0.44913,-0.95674 0.8166,-1.28328 1.88345,-1.67364 0.94926,-0.34734 2.13036,-1.27974 4.16157,-3.28531 2.97949,-2.94186 3.42086,-3.6276 3.43629,-5.33871 0.005,-0.57743 0.20594,-1.29876 0.44606,-1.60292 0.72002,-0.91208 0.50743,-1.86901 -1.07976,-4.86031 -1.81095,-3.41296 -3.07985,-7.41773 -3.54527,-11.18919 -0.18813,-1.52437 -0.60536,-3.98958 -0.92721,-5.47823 -0.77177,-3.56983 -1.53267,-13.6358 -1.29219,-17.09482 0.20763,-2.98684 0.62072,-4.00167 3.04296,-7.47546 1.95872,-2.80908 3.37922,-3.9309 6.48594,-5.12219 3.23113,-1.23912 3.62571,-1.31223 8.79679,-1.63018 4.16556,-0.25619 5.0789,-0.48419 5.4609,-1.3633 0.12106,-0.27856 0.33939,-3.29681 0.48518,-6.70731 0.2319,-5.42467 0.207,-6.28581 -0.19891,-6.87931 -0.34329,-0.50191 -0.5287,-1.92731 -0.71288,-5.48059 -0.16194,-3.12411 -0.40945,-5.20038 -0.7083,-5.94188 -1.1034,-2.73725 -1.73018,-4.75335 -2.34749,-7.55025 -0.58517,-2.6512 -0.78911,-3.1255 -1.79323,-4.1701 -1.26987,-1.321 -3.08189,-2.1623 -5.72857,-2.6595 -1.68199,-0.3161 -1.92052,-0.4695 -4.1632,-2.6787 -1.30843,-1.2888 -3.18187,-3.0006 -4.1632,-3.8039 -3.20547,-2.6239 -7.78138,-7.0327 -8.59209,-8.2782 -0.43645,-0.6706 -1.53137,-1.7604 -2.43315,-2.4219 -2.00278,-1.4688 -9.78927,-8.7476 -11.03961,-10.3196 -1.17593,-1.4787 -5.31874,-7.4681 -6.7626,-9.7771 -0.61885,-0.9898 -1.35768,-2.0153 -1.64182,-2.2793 -0.62634,-0.5816 -2.41226,-3.521 -2.97504,-4.896 -0.22446,-0.5485 -0.72109,-1.6041 -1.10362,-2.3458 -0.41067,-0.7962 -0.73803,-2.0213 -0.79935,-2.9915 -0.0571,-0.9037 -0.24569,-1.9762 -0.41907,-2.3833 -0.28751,-0.675 -0.50591,-0.7556 -2.48307,-0.9144 -1.1923,-0.095 -2.21021,-0.1335 -2.26201,-0.083 -0.0518,0.05 0.31987,5.2492 0.82599,11.5548 0.50609,6.3055 0.87733,11.4933 0.82496,11.5284 -0.23741,0.1587 -27.37717,1.9012 -27.51758,1.7666 -0.19271,-0.1845 -3.05977,-46.4253 -2.88867,-46.5892 0.19786,-0.1895 27.48416,-2.4037 27.65113,-2.2436 0.0842,0.082 0.37873,5.2945 0.65437,11.5862 l 0.50118,11.4396 2.68509,-0.1812 2.6851,-0.1813 1.78422,-1.6441 c 2.15358,-1.9843 2.78815,-2.3208 4.90663,-2.6014 1.52269,-0.2018 1.693,-0.1638 2.46912,0.5518 0.4585,0.4228 1.39522,0.9023 2.08164,1.0656 1.07657,0.2561 1.26136,0.4129 1.34523,1.1396 0.0535,0.4636 0.18729,0.9223 0.29737,1.0194 0.11004,0.098 29.89135,0.074 66.18061,-0.051 l 65.98046,-0.2274 0.85745,-0.9966 c 0.47161,-0.5482 1.33008,-1.1462 1.90774,-1.3288 0.57765,-0.1826 1.66074,-0.7785 2.40686,-1.3242 1.3306,-0.9731 1.38423,-0.9858 2.79783,-0.661 0.79267,0.1823 1.57218,0.2539 1.73225,0.159 0.33682,-0.1993 2.22016,0.9208 3.30886,1.9682 0.9705,0.9335 1.63123,0.9066 2.61555,-0.1061 0.44056,-0.4533 1.21683,-0.9082 1.72506,-1.011 0.91323,-0.1845 0.92625,-0.212 1.11514,-2.3529 0.10515,-1.1914 0.19155,-3.7814 0.1921,-5.7558 6.1e-4,-1.9742 0.0884,-5.609 0.19525,-8.077 l 0.19424,-4.4875 h 14.37597 14.37597 l -6.1e-4,16.3113 c -3.1e-4,8.9713 -0.0887,20.0615 -0.1966,24.6452 l -0.19606,8.3337 h -13.88342 -13.88346 l -0.18953,-4.0601 c -0.10424,-2.233 -0.27905,-6.9135 -0.38846,-10.4008 -0.12668,-4.0386 -0.3172,-6.4294 -0.52465,-6.584 -0.17916,-0.1336 -0.9869,-0.4539 -1.795,-0.7119 l -1.46924,-0.469 -0.83184,0.7637 c -0.76088,0.6983 -0.8166,0.8877 -0.65325,2.2193 0.15807,1.2884 0.0215,1.8237 -1.1884,4.6538 -1.85456,4.3384 -2.32204,5.1712 -4.73301,8.4333 -1.14598,1.5503 -2.66578,3.73 -3.37732,4.8434 -2.01077,3.1466 -5.29413,6.5916 -7.83216,8.2178 -1.22939,0.7878 -2.77251,1.903 -3.42916,2.4784 -0.65666,0.5753 -1.7583,1.35 -2.4481,1.7214 -1.29665,0.6982 -2.14301,1.7238 -3.42895,4.1552 -0.64249,1.2149 -1.07673,1.5922 -3.08324,2.6799 -1.28448,0.6961 -2.88922,1.6561 -3.5661,2.1333 -0.67688,0.4771 -1.84142,1.2131 -2.58786,1.6358 -1.55095,0.8778 -2.73294,2.7209 -2.44648,3.8145 0.13704,0.5231 -0.005,0.7775 -0.64548,1.1566 -0.45163,0.2673 -1.42081,0.8533 -2.15372,1.3021 -0.7329,0.4489 -2.07109,1.1412 -2.97371,1.5389 -3.16069,1.3923 -3.61781,1.6494 -3.96592,2.2305 -0.2215,0.3697 -0.4191,2.8433 -0.53604,6.7111 -0.17546,5.80275 -0.24347,6.35084 -1.28986,10.3993 -1.08112,4.18273 -1.11086,4.44487 -1.39646,12.30925 -0.28009,7.7119 -0.26821,8.08661 0.2953,9.30707 0.66542,1.44131 0.5648,1.41542 6.73868,1.73345 3.28194,0.16908 7.16483,0.76792 8.77245,1.35299 3.08125,1.12121 6.51381,3.10459 7.88047,4.55325 2.78445,2.95162 4.12744,7.04465 4.09614,12.48393 -0.0306,5.29914 -0.77858,8.30906 -3.78714,15.23768 -1.36212,3.1369 -2.57441,6.02398 -2.69403,6.41575 -0.22004,0.72078 -1.73932,4.24504 -3.61899,8.39496 -0.93358,2.06115 -1.00923,2.42708 -0.82458,3.98878 0.11182,0.9457 0.38301,2.13751 0.60267,2.64846 0.46394,1.07924 3.30584,4.05698 3.8719,4.05698 0.21166,0 1.0286,0.51523 1.81542,1.14495 0.78684,0.62971 1.99586,1.59734 2.68671,2.15026 1.2911,1.03338 2.12425,2.77264 1.76173,3.67778 -0.1631,0.4072 -0.64075,0.44077 -3.98055,0.27969 -4.23113,-0.20408 -5.20456,-0.33375 -10.36585,-1.38089 -1.9783,-0.40137 -4.28811,-0.7532 -5.13289,-0.78185 l -1.53597,-0.0521 0.47261,-0.69107 c 0.41498,-0.60681 0.41974,-0.74895 0.0391,-1.16559 -0.23844,-0.26097 -0.63836,-0.86255 -0.88873,-1.33682 -0.42809,-0.81098 -0.41261,-0.92975 0.25999,-1.99441 0.61707,-0.97675 0.7154,-1.49063 0.71673,-3.74565 8.5e-4,-2.34498 0.0752,-2.69746 0.71817,-3.42962 0.85933,-0.97847 1.31302,-3.07903 1.55627,-7.20526 0.14755,-2.50299 0.0701,-3.41041 -0.47445,-5.55581 -0.35794,-1.41032 -0.7073,-3.55881 -0.77639,-4.77438 -0.1105,-1.94474 -0.005,-2.54985 0.87668,-5.03907 1.00024,-2.82321 1.00115,-2.8307 0.44824,-3.70181 -0.999,-1.57388 -3.17722,-1.14113 -7.11108,1.41276 -1.57933,1.0253 -2.90051,1.41342 -6.24258,1.83389 -1.58234,0.19908 -13.98696,-0.57055 -16.35156,-1.01451 -0.89954,-0.1689 -3.47428,-0.37194 -5.72165,-0.4512 l -4.0861,-0.14413 -3.49687,1.09569 c -3.46134,1.08456 -3.5437,1.09553 -8.10614,1.07986 -3.63157,-0.0125 -5.24002,-0.15041 -7.58298,-0.65024 -4.71148,-1.00511 -4.90265,-1.09136 -6.88885,-3.10762 l -1.83354,-1.86131 -1.92963,1.63326 c -1.51854,1.28529 -1.99335,1.88558 -2.22857,2.8175 -0.65341,2.58881 -0.68678,3.60081 -0.20043,6.0771 0.45263,2.30449 0.67738,9.75576 0.31137,10.32313 -0.0731,0.11338 -0.16224,1.86463 -0.19801,3.89163 -0.058,3.29108 0.003,3.81381 0.57824,4.88498 0.509,0.94921 0.64324,1.69901 0.64324,3.59289 0,2.08308 0.0964,2.52943 0.74345,3.44297 0.91118,1.28648 0.93935,2.06985 0.10502,2.92074 -0.53299,0.54359 -0.5751,0.72415 -0.25499,1.09368 0.21087,0.24344 0.29695,0.52545 0.19129,0.62667 -0.10563,0.10126 -1.56326,0.28294 -3.23913,0.40379 -2.82157,0.20348 -6.42426,0.93378 -8.44644,1.71218 -0.46496,0.17897 -3.0199,0.3893 -5.67767,0.46738 l -4.83229,0.14196 v -0.98454 z m 42.47778,-118.54022 c 1.17645,-0.1909 1.95116,-0.4672 2.05819,-0.7344 0.0944,-0.2358 0.0222,-1.1116 -0.16064,-1.9465 -0.29015,-1.3254 -0.25879,-1.6769 0.24764,-2.7739 0.37331,-0.8086 0.63992,-2.2047 0.74832,-3.919 0.21933,-3.4682 0.7152,-4.7347 2.46912,-6.3066 1.19072,-1.0673 1.76903,-1.3503 3.55213,-1.7387 3.5461,-0.7729 7.86576,0.1582 10.66118,2.2979 1.65806,1.2692 2.01184,2.3803 1.77514,5.5752 -0.2045,2.7604 0.13009,3.8919 1.33308,4.5089 0.55541,0.2848 0.60373,0.4829 0.42759,1.755 -0.17196,1.2421 -0.1099,1.5245 0.46342,2.1091 1.08666,1.1083 3.15009,0.7667 4.57351,-0.7572 1.06631,-1.1415 2.69105,-1.9309 6.73034,-3.2698 4.92083,-1.6311 7.45548,-2.2838 10.51651,-2.7082 3.15928,-0.4377 5.48575,-1.4593 7.05836,-3.0987 0.69359,-0.7231 1.93147,-1.8418 2.7508,-2.486 0.81935,-0.6442 2.49772,-2.4391 3.72972,-3.9888 1.369,-1.722 2.93812,-3.3161 4.03543,-4.0996 3.61274,-2.5799 4.70556,-3.3047 7.08826,-4.701 4.31781,-2.5307 9.56579,-7.2091 11.90392,-10.6121 0.68905,-1.0028 0.80587,-1.4257 0.6828,-2.4718 -0.16926,-1.4389 -0.63792,-2.0897 -2.9856,-4.1454 l -1.67148,-1.4636 -42.01876,0.2936 c -52.93804,0.3701 -71.03644,0.5425 -81.74328,0.7785 l -8.50051,0.1874 -1.29432,1.6939 c -1.06504,1.3936 -1.67949,1.8764 -3.46869,2.7246 -1.19593,0.5669 -2.17439,1.1327 -2.17439,1.2572 0,0.5956 2.12711,2.878 3.78902,4.0654 1.02086,0.7295 2.57821,1.9893 3.46079,2.7998 2.49518,2.291 4.34111,3.7159 7.05298,5.4443 4.32569,2.7571 6.3023,4.083 8.40038,5.6347 1.11973,0.8284 2.12834,1.5702 2.24135,1.6485 0.11302,0.078 0.80269,1.1535 1.53261,2.3891 1.52242,2.5774 3.85702,4.7876 7.66799,7.2596 4.33374,2.811 4.30312,2.7986 7.28848,2.9568 1.75661,0.093 3.57214,0.4059 5.10507,0.8796 1.30844,0.4045 3.48457,0.9915 4.83587,1.305 2.4933,0.5779 2.47259,0.5661 6.16689,3.5603 0.49065,0.3975 1.09284,0.651 1.33815,0.5629 0.24535,-0.088 1.29501,-0.2977 2.33263,-0.466 z"
         id="path35435" />
      <text
         xml:space="preserve"
         style="font-style:normal;font-weight:normal;font-size:17.7909px;line-height:1.25;font-family:sans-serif;white-space:pre;inline-size:45.5491;fill:#000000;fill-opacity:1;stroke:#000000;stroke-width:0.744892;stroke-miterlimit:4;stroke-dasharray:none;stroke-opacity:1"
         x="453.75647"
         y="-1005.74"
         id="text3281"
         transform="matrix(4.0070638,0,0,3.8391891,-1305.7508,2758.1822)"><tspan
           x="453.75647"
           y="-1005.74"
           id="tspan1383"><tspan
             style="font-weight:600;font-family:'Bookman Old Style';-inkscape-font-specification:'Bookman Old Style, Semi-Bold'"
             id="tspan1381">JFDI</tspan></tspan></text>
    </g>
  </g>
</svg>
