<?xml version="1.0" standalone="no"?>
<!DOCTYPE svg PUBLIC "-//W3C//DTD SVG 20010904//EN"
 "http://www.w3.org/TR/2001/REC-SVG-20010904/DTD/svg10.dtd">
<svg version="1.0" xmlns="http://www.w3.org/2000/svg"
 width="5255.000000pt" height="2243.000000pt" viewBox="0 0 5255.000000 2243.000000"
 preserveAspectRatio="xMidYMid meet">

<g transform="translate(0.000000,2243.000000) scale(0.100000,-0.100000)"
fill="#000000" stroke="none">
<path d="M6480 22409 c-291 -34 -579 -133 -800 -277 -660 -428 -974 -1281
-770 -2093 70 -281 161 -463 347 -694 280 -348 657 -586 1074 -679 447 -99
958 -27 1340 189 503 285 854 804 935 1383 23 163 15 475 -16 617 -47 221
-153 476 -290 700 -291 476 -799 792 -1372 854 -112 13 -339 12 -448 0z m240
-1216 c36 -40 66 -160 49 -196 -7 -16 -57 -56 -131 -103 -143 -93 -192 -140
-229 -219 -39 -83 -52 -177 -44 -315 6 -104 10 -119 36 -162 88 -139 253 -219
449 -219 105 0 151 11 284 66 99 41 159 54 171 35 14 -23 7 -80 -15 -115 -12
-19 -43 -47 -68 -62 -26 -14 -68 -39 -93 -55 -76 -47 -166 -60 -384 -56 -180
4 -194 5 -255 31 -137 57 -252 170 -347 341 -77 136 -87 180 -87 356 0 142 2
162 27 235 37 112 90 198 172 281 163 165 390 242 465 157z"/>
<path d="M4945 22296 c-315 -117 -660 -307 -938 -515 -345 -258 -686 -595
-989 -976 -1085 -1368 -1890 -3548 -2252 -6105 -92 -647 -147 -1225 -188
-1990 -17 -317 -17 -1635 0 -1945 28 -511 62 -929 108 -1315 233 -1988 739
-3628 1503 -4869 8 -13 36 -9 193 23 591 121 1127 279 1583 466 270 112 713
346 924 489 218 149 522 433 726 679 825 999 1414 2561 1739 4612 53 332 133
989 147 1195 27 414 -18 879 -127 1320 -103 415 -240 784 -582 1565 -355 812
-476 1119 -602 1521 -129 411 -257 1256 -278 1837 l-7 186 -100 56 c-222 124
-399 255 -583 434 -435 423 -692 922 -774 1506 -21 150 -17 579 6 705 78 426
265 802 545 1098 30 31 50 57 45 56 -5 0 -49 -15 -99 -33z"/>
<path d="M8365 22048 c72 -73 163 -176 203 -229 238 -320 398 -687 485 -1113
19 -95 22 -140 21 -311 -1 -110 -6 -229 -12 -264 -6 -36 -10 -66 -9 -68 4 -3
1333 -323 1344 -323 4 0 26 40 48 88 56 123 122 218 217 318 176 184 351 284
597 343 l113 27 -158 111 c-950 664 -1901 1173 -2769 1480 -93 34 -179 63
-191 67 -11 3 39 -54 111 -126z"/>
<path d="M11327 20214 c-184 -41 -341 -123 -475 -249 -74 -69 -157 -177 -196
-252 -16 -32 -16 -33 6 -38 13 -3 225 -55 472 -114 430 -104 451 -110 477
-139 43 -48 53 -100 35 -172 -9 -33 -23 -71 -31 -84 -19 -29 -72 -56 -110 -56
-15 0 -234 38 -487 85 -253 47 -464 82 -469 79 -21 -12 12 -226 53 -344 179
-513 744 -777 1262 -589 164 59 349 200 451 344 302 422 223 1008 -178 1331
-96 76 -247 154 -362 185 -106 29 -347 36 -448 13z"/>
<path d="M8904 19543 c-101 -244 -269 -495 -463 -690 -366 -369 -820 -574
-1348 -608 l-103 -7 0 -132 c0 -798 429 -1732 1288 -2805 234 -292 660 -783
882 -1016 336 -354 528 -751 607 -1255 33 -214 20 -985 -23 -1360 -49 -431
-171 -956 -341 -1475 -66 -200 -188 -535 -236 -646 l-16 -36 327 -6 c1534 -31
2664 -287 3280 -746 175 -131 339 -322 407 -474 65 -148 95 -363 76 -557 -36
-385 -171 -762 -522 -1460 -330 -656 -485 -945 -650 -1207 -367 -585 -774
-1209 -917 -1408 -49 -67 -672 -1115 -672 -1129 0 -5 286 65 528 130 1932 516
3717 1385 5072 2469 452 362 900 798 1240 1209 619 747 1051 1621 1179 2381
71 418 80 915 25 1405 -90 814 -365 1752 -800 2735 -115 260 -422 874 -568
1136 -1067 1917 -2554 3761 -4296 5327 l-145 130 -6 -146 c-7 -154 -22 -240
-62 -357 -111 -322 -362 -587 -679 -717 -40 -16 -124 -42 -187 -57 l-114 -27
-34 -124 c-123 -454 -401 -1142 -613 -1514 -76 -134 -86 -147 -98 -130 -129
182 -212 267 -359 364 -57 38 -146 85 -198 106 l-94 37 112 117 c324 335 558
716 661 1071 46 161 48 150 -32 187 -367 170 -626 538 -673 959 -9 79 -15 104
-28 107 -9 3 -313 59 -676 126 -363 66 -672 123 -688 126 -24 5 -29 2 -43 -33z
m975 -2854 c474 -44 795 -309 866 -714 21 -120 21 -519 0 -638 -78 -445 -415
-780 -855 -848 -93 -14 -318 -6 -415 16 -145 32 -333 149 -457 285 -120 131
-208 312 -242 501 -23 125 -36 377 -25 486 36 354 248 660 563 813 115 56 220
87 333 99 112 12 107 12 232 0z"/>
<path d="M41920 19349 c-250 -10 -491 -24 -915 -54 -739 -53 -1011 -64 -1630
-71 -547 -6 -587 -10 -664 -58 -45 -29 -83 -76 -99 -125 -12 -34 -27 -260 -37
-561 -41 -1218 -93 -1964 -380 -5455 -128 -1560 -197 -2509 -236 -3257 -16
-307 -7 -694 19 -818 41 -197 108 -350 211 -488 306 -405 901 -629 1811 -681
616 -36 1814 -39 2165 -7 826 76 1466 244 2035 531 424 215 812 486 1170 817
600 555 1105 1399 1393 2328 211 680 361 1619 407 2549 13 261 13 920 0 1166
-39 754 -141 1372 -305 1860 -253 753 -678 1296 -1317 1681 -123 75 -389 205
-528 259 -504 198 -1145 323 -1910 375 -132 9 -130 9 57 4 502 -11 1096 -89
1554 -204 566 -143 1059 -379 1449 -693 102 -83 321 -303 404 -407 514 -644
773 -1515 846 -2843 13 -242 13 -974 0 -1227 -45 -863 -180 -1741 -370 -2400
-167 -580 -426 -1145 -745 -1630 -409 -621 -953 -1125 -1633 -1514 -711 -407
-1515 -618 -2547 -669 -33 -2 4 -4 81 -5 440 -6 1073 67 1544 179 1206 286
2276 1041 2930 2069 530 832 824 1728 989 3010 73 564 95 932 96 1565 0 833
-53 1396 -186 1988 -83 368 -170 620 -314 912 -238 483 -560 854 -990 1142
-675 452 -1586 687 -2840 732 -302 11 -1245 11 -1515 0z m453 -2446 c-24 -2
-62 -2 -85 0 -24 2 -5 4 42 4 47 0 66 -2 43 -4z m-183 -10 c-155 -9 -630 -44
-661 -49 l-35 -5 -18 -312 c-81 -1458 -206 -3444 -296 -4707 -44 -607 -107
-1427 -114 -1476 -5 -37 -10 -35 189 -54 186 -17 186 -19 5 -15 -138 4 -439
29 -446 38 -1 1 2 47 7 102 103 1202 274 3805 410 6215 6 113 13 207 15 209
10 11 718 59 874 58 69 0 100 -2 70 -4z m570 -14 c47 -5 137 -21 200 -36 782
-173 1161 -692 1279 -1749 31 -280 41 -481 41 -854 0 -533 -38 -1014 -116
-1485 -82 -493 -269 -1019 -492 -1378 -228 -370 -611 -725 -958 -888 -264
-125 -641 -212 -914 -211 -107 0 -387 25 -397 36 -2 1 12 201 32 442 103 1300
242 3404 360 5473 19 332 36 606 39 609 12 12 709 60 791 54 28 -1 88 -7 135
-13z m-1187 -6616 c-24 -2 -62 -2 -85 0 -24 2 -5 4 42 4 47 0 66 -2 43 -4z"/>
<path d="M26660 19209 c-97 -17 -123 -49 -146 -182 -8 -45 -48 -642 -89 -1327
-232 -3856 -254 -4120 -441 -5365 -143 -950 -325 -1499 -611 -1840 -154 -184
-376 -278 -619 -261 -220 15 -341 79 -451 238 -109 157 -180 339 -263 673 -44
176 -58 214 -93 252 -29 32 -65 36 -222 23 -549 -43 -1041 -286 -1330 -655
-199 -254 -301 -522 -324 -851 -57 -808 432 -1527 1283 -1889 302 -128 606
-206 986 -252 210 -26 831 -25 1045 1 694 84 1174 277 1665 670 564 452 983
1067 1293 1896 167 445 284 932 417 1740 115 697 184 1386 270 2700 67 1037
130 2602 134 3325 1 359 -10 456 -64 573 -131 281 -511 467 -1065 522 -143 15
-1302 22 -1375 9z"/>
<path d="M28095 19213 c22 -1 98 -8 169 -13 197 -17 357 -47 503 -95 221 -73
360 -152 469 -266 177 -185 196 -305 175 -1084 -45 -1688 -130 -3240 -247
-4490 -76 -818 -248 -1843 -405 -2413 -182 -662 -481 -1297 -828 -1757 -314
-416 -748 -789 -1163 -1001 -357 -181 -776 -291 -1268 -333 -102 -9 -90 -9
110 -6 648 11 1193 153 1658 429 381 227 778 600 1064 999 281 393 552 963
717 1512 184 608 371 1689 456 2627 120 1336 207 2961 244 4572 15 652 -10
777 -189 956 -97 97 -193 156 -360 221 -214 84 -431 123 -774 139 -176 9 -423
11 -331 3z"/>
<path d="M31439 19210 c-55 -9 -96 -30 -126 -62 -47 -50 -53 -83 -63 -370 -20
-542 -64 -1181 -185 -2693 -35 -440 -89 -1142 -120 -1560 -54 -736 -132 -1756
-214 -2810 -42 -528 -88 -1200 -118 -1695 -10 -169 -17 -433 -17 -650 -1 -343
0 -371 22 -467 116 -526 423 -820 979 -937 231 -49 361 -56 1006 -56 601 0
648 3 661 37 18 47 49 454 181 2378 80 1166 148 2135 151 2153 l5 32 125 0
125 0 -6 -57 c-3 -32 -71 -1001 -150 -2153 -79 -1152 -149 -2140 -155 -2195
-16 -143 -25 -171 -58 -184 -20 -7 21 -10 155 -8 222 2 215 -1 232 132 10 80
311 4376 311 4438 l0 25 543 5 c574 4 609 7 812 58 101 26 233 87 303 141 164
127 300 419 342 733 20 150 79 1099 71 1135 -15 67 -46 103 -121 138 -32 15
-120 17 -917 20 -688 2 -883 5 -883 15 -1 28 152 2194 156 2214 l4 22 963 3
c946 4 964 4 1074 26 295 58 460 157 578 346 100 160 163 348 190 565 22 184
79 1072 71 1125 -9 60 -49 106 -118 137 l-53 24 -2855 1 c-1570 1 -2876 -2
-2901 -6z m2711 -2227 c0 -23 -151 -2146 -156 -2190 l-5 -53 -126 0 -125 0 6
68 c4 37 38 513 76 1057 38 545 72 1020 76 1058 l6 67 124 0 c68 0 124 -3 124
-7z"/>
<path d="M37469 19201 c104 -37 143 -83 149 -174 4 -64 -50 -913 -69 -1072
-30 -265 -109 -479 -239 -656 -57 -76 -129 -134 -228 -184 -111 -55 -215 -82
-467 -119 -16 -2 62 -3 175 -1 287 4 453 36 627 120 185 90 309 251 398 519
55 163 71 289 110 860 33 495 35 532 20 582 -11 38 -25 60 -48 78 -65 50 -109
59 -302 63 l-180 4 54 -20z"/>
<path d="M49370 19209 c-70 -12 -124 -48 -152 -102 -19 -38 -22 -64 -29 -257
-20 -535 -77 -1385 -174 -2580 -52 -633 -98 -1231 -165 -2145 -33 -451 -80
-1076 -105 -1390 -98 -1256 -116 -1484 -140 -1835 -61 -888 -91 -1514 -82
-1720 14 -300 80 -527 213 -727 166 -249 411 -402 773 -483 239 -53 280 -55
996 -55 658 0 671 0 705 21 69 40 90 106 115 360 32 328 192 2572 330 4634 87
1303 125 1845 200 2895 30 418 64 918 76 1110 26 408 31 878 11 1025 -83 613
-305 959 -717 1119 -195 76 -406 115 -711 131 -232 12 -1068 11 -1144 -1z"/>
<path d="M50780 19213 c622 -47 952 -188 1155 -493 135 -202 210 -422 257
-750 9 -64 13 -195 12 -400 0 -335 -14 -585 -94 -1695 -78 -1083 -113 -1597
-205 -2965 -136 -2029 -301 -4342 -330 -4634 -18 -172 -28 -223 -55 -275 -23
-45 -38 -59 -87 -77 -34 -12 -21 -14 142 -11 217 3 240 10 280 91 31 64 40
113 60 322 35 382 197 2667 330 4654 77 1154 132 1948 210 3035 89 1244 107
1681 76 1920 -58 465 -206 797 -437 984 -215 174 -532 266 -1000 291 -170 9
-424 11 -314 3z"/>
<path d="M36356 14722 c94 -33 128 -67 145 -142 10 -42 -50 -1001 -72 -1150
-30 -214 -97 -399 -200 -554 -77 -116 -136 -171 -249 -230 -114 -60 -290 -106
-483 -126 -61 -7 -27 -8 133 -5 318 6 500 40 680 127 112 54 223 165 293 291
86 152 152 377 171 577 13 136 66 952 66 1012 0 96 -28 145 -105 183 -59 30
-62 30 -245 33 l-185 2 51 -18z"/>
<path d="M24188 11473 l-47 -4 23 -34 c13 -19 31 -65 41 -102 106 -417 149
-534 258 -691 101 -147 219 -202 437 -202 111 0 160 12 97 24 -47 9 -125 51
-165 89 -82 78 -178 243 -227 392 -21 64 -125 448 -125 461 0 2 -14 19 -31 39
l-31 35 -92 -2 c-50 -1 -112 -3 -138 -5z"/>
<path d="M42 11390 c-40 -577 -46 -1829 -12 -2515 132 -2619 682 -4635 1670
-6115 372 -556 845 -1068 1355 -1465 400 -312 898 -593 1410 -797 1518 -606
3455 -656 5710 -147 1168 264 2262 618 3202 1035 2168 962 3862 2269 4844
3739 283 425 566 982 687 1355 166 513 244 1158 213 1760 -6 118 -14 242 -18
275 l-6 60 -18 -90 c-112 -582 -415 -1269 -844 -1915 -878 -1322 -2302 -2492
-4100 -3371 -656 -320 -1173 -526 -2055 -817 -1686 -557 -3029 -830 -4380
-893 -276 -13 -829 -7 -1065 11 -989 75 -1802 280 -2551 645 -458 223 -876
496 -1249 817 -143 123 -438 414 -560 553 -1450 1651 -2189 4205 -2228 7705
-1 113 -4 189 -5 170z"/>
<path d="M9855 7770 c-360 -24 -700 -65 -1050 -125 -194 -33 -348 -63 -349
-68 -1 -1 -49 -99 -109 -217 -356 -713 -798 -1311 -1408 -1905 -284 -276 -673
-613 -884 -764 -474 -341 -1200 -711 -1925 -981 -276 -104 -682 -237 -878
-290 -24 -6 -42 -15 -40 -20 10 -29 331 -265 508 -373 832 -509 1882 -789
3210 -858 224 -12 1051 -6 1152 7 l47 7 783 1076 c532 731 818 1116 893 1201
682 770 1313 1596 1600 2097 205 355 312 658 290 812 -10 68 -48 145 -86 174
-141 107 -362 173 -710 213 -168 19 -833 28 -1044 14z"/>
<path d="M22180 6595 l0 -125 14950 0 14950 0 0 125 0 125 -14950 0 -14950 0
0 -125z"/>
<path d="M22180 6035 l0 -125 14950 0 14950 0 0 125 0 125 -14950 0 -14950 0
0 -125z"/>
<path d="M28362 4719 c-154 -26 -306 -103 -412 -208 -163 -164 -240 -362 -240
-620 0 -234 59 -411 192 -579 101 -126 236 -209 414 -254 76 -19 115 -22 274
-22 217 0 285 14 439 90 79 39 110 62 181 133 137 137 198 276 207 479 l6 112
-302 0 -301 0 0 -100 0 -100 151 0 151 0 -7 -32 c-11 -56 -63 -154 -106 -197
-55 -58 -147 -115 -227 -143 -57 -19 -87 -23 -197 -23 -158 0 -228 20 -344 99
-129 88 -212 212 -246 369 -25 115 -17 285 18 390 69 200 209 335 397 383 98
25 273 16 362 -19 129 -50 260 -157 320 -263 l30 -54 104 0 104 0 0 275 0 275
-105 0 -105 0 0 -90 c0 -49 -3 -90 -6 -90 -4 0 -21 13 -40 29 -77 68 -217 130
-352 157 -81 15 -275 17 -360 3z"/>
<path d="M42675 4710 c-58 -12 -124 -36 -185 -66 -82 -40 -108 -60 -190 -143
-80 -80 -103 -111 -143 -191 -75 -150 -90 -223 -91 -425 0 -157 2 -177 28
-260 49 -161 146 -317 257 -414 135 -117 346 -181 593 -181 360 0 636 154 761
425 39 84 61 178 71 303 l7 92 -307 0 -306 0 0 -100 0 -100 151 0 151 0 -6
-37 c-20 -111 -118 -230 -242 -295 -170 -90 -387 -91 -563 -5 -98 47 -218 169
-264 267 -51 109 -62 166 -61 315 1 113 4 141 28 212 31 95 106 213 171 271
61 54 149 99 231 118 96 22 265 15 353 -16 127 -45 275 -168 333 -276 l23 -44
102 0 103 0 0 275 0 275 -105 0 -105 0 0 -91 0 -90 -64 46 c-90 64 -204 114
-310 136 -120 25 -299 24 -421 -1z"/>
<path d="M45720 4724 c-441 -86 -692 -423 -667 -899 20 -377 240 -669 578
-765 95 -27 277 -37 387 -21 213 31 413 143 527 293 49 64 105 174 123 239
l10 36 -107 60 -106 60 -16 -46 c-57 -162 -172 -301 -309 -371 -113 -58 -279
-71 -405 -32 -184 56 -338 223 -392 423 -21 79 -24 279 -4 359 7 30 31 93 53
140 69 144 201 258 343 295 76 19 224 19 299 0 139 -36 281 -141 346 -254 l35
-60 108 -1 107 0 0 265 0 265 -105 0 -104 0 -3 -75 -3 -74 -45 31 c-61 41
-153 83 -242 109 -57 16 -107 22 -228 24 -85 2 -166 1 -180 -1z"/>
<path d="M22207 4703 c-4 -3 -7 -50 -7 -104 l0 -98 102 -3 102 -3 138 -480
c76 -264 170 -591 209 -727 l72 -248 116 0 116 0 179 638 c99 350 182 641 186
645 4 4 90 -283 190 -638 l184 -646 119 3 120 3 27 95 c15 52 107 380 205 728
l179 632 98 0 98 0 0 105 0 105 -305 0 -305 0 0 -105 0 -104 98 -3 98 -3 -150
-527 c-82 -291 -152 -528 -156 -528 -3 0 -70 233 -149 518 -80 284 -146 523
-149 530 -3 9 19 12 92 12 l96 0 0 105 0 105 -377 -2 -378 -3 -3 -102 -3 -103
102 0 c77 0 100 -3 97 -12 -3 -7 -69 -246 -148 -530 -79 -285 -147 -518 -150
-518 -4 0 -240 798 -307 1043 -5 15 4 17 96 17 l102 0 -3 103 -3 102 -311 3
c-171 1 -313 -1 -317 -5z"/>
<path d="M24930 4605 l0 -105 105 0 105 0 0 -620 0 -620 -105 0 -105 0 0 -105
0 -105 685 0 685 0 0 255 0 255 -105 0 -105 0 0 -150 0 -150 -350 0 -350 0 0
270 0 270 305 0 305 0 0 105 0 105 -305 0 -305 0 0 245 0 245 350 0 350 0 0
-145 0 -145 105 0 105 0 0 250 0 250 -685 0 -685 0 0 -105z"/>
<path d="M26680 4605 l0 -105 90 0 90 0 0 -620 0 -620 -90 0 -90 0 0 -105 0
-105 303 2 302 3 3 103 3 102 -91 0 -90 0 0 620 0 620 90 0 91 0 -3 103 -3
102 -302 3 -303 2 0 -105z"/>
<path d="M29830 4605 l0 -105 90 0 90 0 0 -620 0 -620 -90 0 -90 0 0 -105 0
-105 315 0 315 0 0 105 0 105 -100 0 -100 0 0 280 0 280 360 0 360 0 0 -280 0
-280 -95 0 -95 0 0 -105 0 -105 315 0 315 0 0 105 0 105 -95 0 -95 0 0 620 0
620 95 0 95 0 0 105 0 105 -315 0 -315 0 0 -105 0 -105 95 0 95 0 0 -235 0
-235 -360 0 -360 0 0 235 0 235 100 0 100 0 0 105 0 105 -315 0 -315 0 0 -105z"/>
<path d="M31740 4395 l0 -315 100 0 100 0 0 210 0 210 170 0 170 0 0 -620 0
-620 -105 0 -105 0 0 -105 0 -105 335 0 335 0 0 105 0 105 -105 0 -105 0 0
620 0 620 170 0 170 0 0 -210 0 -210 100 0 100 0 0 315 0 315 -665 0 -665 0 0
-315z"/>
<path d="M33360 4605 l0 -105 105 0 105 0 0 -620 0 -620 -105 0 -105 0 0 -105
0 -105 605 0 605 0 0 385 0 385 -115 0 -115 0 0 -280 0 -280 -255 0 -255 0 0
620 0 620 100 0 100 0 0 105 0 105 -335 0 -335 0 0 -105z"/>
<path d="M34897 4703 c-4 -3 -7 -51 -7 -105 l0 -98 90 0 90 0 0 -620 0 -620
-90 0 -91 0 3 -102 3 -103 303 -3 302 -2 0 105 0 105 -90 0 -90 0 0 620 0 620
90 0 90 0 0 105 0 105 -298 0 c-164 0 -302 -3 -305 -7z"/>
<path d="M35847 4703 c-4 -3 -7 -51 -7 -105 l0 -98 105 0 105 0 0 -620 0 -620
-105 0 -106 0 3 -102 3 -103 333 -3 332 -2 0 105 0 105 -105 0 -105 0 0 270 0
270 268 2 267 3 3 103 3 102 -271 0 -270 0 0 245 0 245 310 0 310 0 0 -145 0
-145 105 0 105 0 -2 248 -3 247 -636 3 c-349 1 -639 -1 -642 -5z"/>
<path d="M37397 4703 c-4 -3 -7 -145 -7 -315 l0 -308 105 0 105 0 0 210 0 210
170 0 170 0 0 -620 0 -620 -105 0 -105 0 0 -105 0 -105 335 0 335 0 0 105 0
105 -105 0 -105 0 0 620 0 620 170 0 170 0 0 -210 0 -210 100 0 100 0 0 315 0
315 -663 0 c-365 0 -667 -3 -670 -7z"/>
<path d="M39060 4605 l0 -105 90 0 90 0 0 -620 0 -620 -90 0 -90 0 0 -105 0
-105 303 2 302 3 3 103 3 102 -91 0 -90 0 0 620 0 620 90 0 91 0 -3 103 -3
102 -302 3 -303 2 0 -105z"/>
<path d="M39980 4605 l0 -105 120 0 120 0 0 -620 0 -620 -120 0 -120 0 0 -105
0 -105 338 2 337 3 3 103 3 102 -121 0 -120 0 0 593 c0 576 1 591 18 562 10
-16 188 -333 396 -702 l378 -673 129 0 129 0 0 730 0 730 120 0 120 0 0 105 0
105 -337 -2 -338 -3 -3 -102 -3 -103 121 0 120 0 0 -537 c0 -295 -2 -534 -4
-532 -2 2 -162 285 -356 629 -194 344 -357 631 -363 638 -7 9 -77 12 -288 12
l-279 0 0 -105z"/>
<path d="M47050 4605 l0 -105 110 0 110 0 0 -620 0 -620 -110 0 -110 0 0 -105
0 -105 605 0 605 0 0 385 0 385 -115 0 -115 0 0 -280 0 -280 -250 0 -250 0 0
620 0 620 100 0 100 0 0 105 0 105 -340 0 -340 0 0 -105z"/>
<path d="M48540 4605 l0 -105 105 0 105 0 0 -518 c0 -332 4 -540 11 -578 32
-175 152 -297 344 -349 84 -22 286 -31 382 -15 176 28 316 121 382 254 45 91
50 176 51 734 l0 472 100 0 100 0 0 105 0 105 -320 0 -320 0 0 -105 0 -105 96
0 95 0 -4 -522 c-3 -398 -7 -534 -17 -568 -19 -62 -90 -132 -161 -156 -74 -25
-243 -26 -314 -1 -64 22 -120 68 -146 119 -30 59 -38 210 -39 706 l0 422 100
0 100 0 0 105 0 105 -325 0 -325 0 0 -105z"/>
<path d="M50438 4704 c-5 -4 -8 -52 -8 -106 l0 -98 105 0 105 0 0 -620 0 -620
-105 0 -106 0 3 -102 3 -103 235 -3 c278 -3 594 12 667 32 148 40 257 127 313
248 63 137 51 318 -31 442 -37 55 -105 112 -167 140 l-41 19 43 27 c84 54 144
165 153 283 10 137 -32 251 -128 342 -67 64 -117 89 -209 105 -75 14 -821 26
-832 14z m724 -215 c121 -25 187 -93 195 -202 7 -86 -15 -154 -67 -201 -53
-48 -93 -58 -257 -63 l-143 -5 0 241 0 241 110 0 c60 0 133 -5 162 -11z m113
-700 c59 -20 138 -103 154 -162 20 -71 10 -175 -23 -231 -58 -99 -125 -124
-358 -133 l-158 -6 0 277 0 278 173 -5 c107 -3 187 -9 212 -18z"/>
</g>
</svg>
