<?xml version="1.0" encoding="UTF-8" standalone="no"?>
<!-- Created with Inkscape (http://www.inkscape.org/) -->

<svg
   width="210mm"
   height="297mm"
   viewBox="0 0 210 297"
   version="1.1"
   id="svg32785"
   inkscape:version="1.1 (c68e22c387, 2021-05-23)"
   sodipodi:docname="jfdi.svg"
   xmlns:inkscape="http://www.inkscape.org/namespaces/inkscape"
   xmlns:sodipodi="http://sodipodi.sourceforge.net/DTD/sodipodi-0.dtd"
   xmlns="http://www.w3.org/2000/svg"
   xmlns:svg="http://www.w3.org/2000/svg">
  <sodipodi:namedview
     id="namedview32787"
     pagecolor="#505050"
     bordercolor="#eeeeee"
     borderopacity="1"
     inkscape:pageshadow="0"
     inkscape:pageopacity="0"
     inkscape:pagecheckerboard="0"
     inkscape:document-units="mm"
     showgrid="false"
     inkscape:zoom="0.52410025"
     inkscape:cx="355.84795"
     inkscape:cy="542.83508"
     inkscape:window-width="1920"
     inkscape:window-height="1017"
     inkscape:window-x="-8"
     inkscape:window-y="-8"
     inkscape:window-maximized="1"
     inkscape:current-layer="g32699" />
  <defs
     id="defs32782" />
  <g
     inkscape:label="Layer 1"
     inkscape:groupmode="layer"
     id="layer1">
    <g
       id="g32699"
       transform="matrix(0.58227782,0,0,0.60773882,-249.98615,765.63894)">
      <g
         id="g34226"
         transform="translate(91.901741,-112.14113)"
         style="fill:none;fill-opacity:1">
        <g
           id="g34221"
           style="fill:none;fill-opacity:1">
          <path
             style="fill:none;fill-opacity:1;stroke:#000000;stroke-width:3.2747;stroke-linecap:butt;stroke-linejoin:miter;stroke-miterlimit:4;stroke-dasharray:none;stroke-opacity:1"
             d="m 523.29269,-808.75844 h -4.20459 l -4.4519,0.30878 -3.62749,0.9263 -3.4626,1.15785 -2.96795,0.84908 -4.4519,0.15438 h -5.44122 l -4.78169,-0.38593 c 0,0 -4.4519,-1.08068 -4.78168,-1.08068 -0.32977,0 -2.63817,-0.46315 -3.46262,-0.6947 -0.82441,-0.2316 -3.46257,-1.00349 -3.46257,-1.00349 l -2.30841,-2.16134 -0.82441,-1.23505 -1.07177,-0.9263 -1.48398,1.38946 -1.23664,0.6947 -0.98929,0.7719 -0.65954,1.77537 c 0,0 -0.24735,1.54383 -0.32979,1.8526 -0.0825,0.30875 -0.41223,2.16131 -0.32975,2.62445 0.0825,0.46316 0.24731,1.38945 0.24731,1.6982 0,0.30877 0.41223,2.08415 0.41223,2.08415 0,0 0.41219,2.16133 0.41219,2.54727 0,0.38597 0.16491,1.77541 0.24735,2.16134 0.0825,0.38596 0.16487,2.47011 0.0825,2.77887 -0.0825,0.30876 -0.0825,1.85256 -0.0825,2.54729 0,0.69471 -0.16492,2.70164 -0.16492,3.1648 0,0.46314 -0.24731,2.47011 -0.24731,3.01042 0,0.54033 -0.0825,2.62448 -0.16488,3.47359 -0.0825,0.84908 0,2.00694 -0.0825,2.54728 -0.0825,0.54033 -0.16492,1.92974 -0.16492,2.23852 0,0.30878 0.49467,1.69819 0.49467,1.69819 l 0.82445,1.31223 c 0,0 0.74198,1.46663 0.74198,2.00696 0,0.54035 -0.0825,2.00694 -0.0825,2.31572 v 2.00693 l 0.0825,1.8526 c 0,0 0.41219,0.69471 0.49466,1.08067 0.0825,0.38593 1.15417,1.23504 1.15417,1.23504 l 0.74201,1.92975 -0.16491,1.38945 -0.74198,1.31223 -0.5771,0.61752 0.82445,0.9263 0.98929,1.00345 -0.16487,1.08067 -1.1542,0.30877 -1.89619,0.23156 -2.72062,0.0772 -1.81374,0.1544 -2.80304,0.15438 -2.96795,0.61752 -1.97862,0.38596 -3.54504,1.00348 c 0,0 -1.89619,0.69471 -2.3084,0.77189 -0.41223,0.0772 -3.38016,0.23157 -3.70993,0.30876 -0.32978,0.0772 -3.38016,0.15439 -3.38016,0.15439 l -4.78169,-0.0772 -2.55572,0.15437 -1.23664,-0.38596 -0.57711,-0.7719 c 0,0 -0.0825,-2.31571 -0.0825,-2.62449 0,-0.30874 0.32977,-1.77537 0.32977,-1.77537 l 1.64885,-1.77538 c 0,0 1.23664,-1.15786 1.40154,-1.77537 0.16488,-0.61753 0,-1.23505 0.24731,-1.54383 0.24735,-0.30874 1.40153,-1.31223 2.0611,-1.54382 0.65954,-0.23155 2.47328,-0.77189 3.05038,-1.15785 0.5771,-0.38593 2.55572,-2.3929 2.88548,-2.70164 0.32977,-0.30878 1.07175,-1.08067 1.64886,-1.62101 0.57711,-0.54034 2.22596,-2.39292 2.22596,-2.39292 0,0 1.15421,-1.23504 1.23664,-1.77539 0.0825,-0.54033 0.0825,-2.47008 0.16488,-2.85604 0.0825,-0.38593 0.5771,-1.62101 0.5771,-1.62101 0,0 0.65954,-0.77189 0.90687,-1.15785 0.24734,-0.38594 -0.90687,-1.77538 -0.90687,-1.77538 l -1.07176,-2.85604 c 0,0 -1.89619,-2.70165 -2.22594,-3.47357 -0.32977,-0.7719 -0.82444,-2.62446 -1.23666,-3.85954 -0.41219,-1.23503 -0.98931,-3.55074 -1.40152,-4.86298 -0.41223,-1.31223 -0.98929,-7.56465 -1.15421,-8.64532 -0.16487,-1.08068 -0.9893,-4.24549 -1.31908,-5.94368 -0.32975,-1.6982 -0.74197,-5.40333 -0.74197,-5.40333 l -0.57711,-8.49095 -0.41222,-7.02436 c 0,0 0.41222,-3.70512 0.41222,-4.16827 0,-0.46315 0.41223,-3.47357 0.57711,-3.78234 0.16487,-0.30875 1.64885,-2.54728 1.97862,-3.24198 0.32978,-0.69473 1.89618,-3.01046 2.22597,-3.39639 0.32975,-0.38595 2.72058,-3.55078 2.72058,-3.55078 l 2.72064,-2.23852 2.63816,-1.31223 3.13282,-1.08067 2.39083,-1.00349 2.88552,-0.61752 3.13282,-0.23156 3.21526,-0.38596 c 0,0 3.05038,-0.0772 3.46261,-0.0772 0.41221,0 2.22596,0 2.55572,-0.0772 0.32978,-0.0772 0.98933,-0.23157 1.15419,-0.84909 0.16492,-0.61754 0.32979,-2.93326 0.32979,-2.93326 l 0.0825,-7.02427 0.41222,-5.9437 -0.0825,-1.54377 c 0,0 -0.82441,-0.92631 -0.90685,-1.38947 -0.0825,-0.46304 -0.41223,-1.7753 -0.41223,-2.23845 0,-0.46316 -0.41219,-5.78938 -0.41219,-5.78938 v -4.3226 l -0.24735,-2.08414 -0.49466,-1.46668 -0.32975,-1.23504 -0.90689,-1.38936 c 0,0 -0.65954,-1.69819 -0.82442,-2.08414 -0.16488,-0.38605 -0.5771,-2.31577 -0.5771,-2.62451 0,-0.30873 -0.24732,-1.62098 -0.32975,-2.00693 -0.0825,-0.38594 -0.32979,-1.46667 -0.41223,-1.85261 -0.0825,-0.38595 -0.41223,-1.38947 -0.41223,-1.6982 0,-0.30874 -0.24731,-0.46316 -0.41222,-1.23505 -0.16488,-0.77189 -0.41219,-1.46656 -0.41219,-1.46656 l -1.40154,-1.46668 c 0,0 -1.40153,-1.00341 -1.8962,-1.31225 -0.49462,-0.30873 -3.21525,-1.15783 -3.79235,-1.31215 -0.5771,-0.15444 -2.06106,-0.30882 -3.21526,-0.61758 -1.1542,-0.30875 -2.39085,-0.92627 -4.20459,-2.85604 -1.81374,-1.92983 -3.4626,-3.7051 -3.95726,-4.09108 -0.49463,-0.38591 -2.96795,-2.39297 -2.96795,-2.39297 l -3.21526,-2.54716 -2.7206,-3.01048 -2.30841,-1.92984 -3.21526,-2.77882 -1.23663,-1.9297 c 0,0 -0.74201,-1.38948 -0.98933,-1.69817 -0.24731,-0.30889 -2.72062,-2.00706 -3.13282,-2.39291 -0.41223,-0.38604 -2.63819,-1.62108 -3.38016,-2.47019 -0.74198,-0.84912 -2.22595,-2.62438 -2.80304,-3.16474 -0.5771,-0.54036 -3.29773,-2.70173 -3.95727,-3.31918 -0.65954,-0.61758 -3.54505,-3.39641 -3.79237,-3.70516 -0.24734,-0.30876 -4.45193,-5.55778 -4.45193,-5.55778 l -1.48395,-2.54728 -2.55572,-3.31918 c 0,0 -1.40155,-2.23853 -1.64887,-2.62438 -0.24731,-0.38605 -1.40152,-2.23859 -1.40152,-2.23859 l -1.89618,-2.93321 c 0,0 -1.23664,-0.92633 -1.56642,-1.62101 -0.32975,-0.6948 -2.63817,-4.32267 -2.63817,-4.32267 l -1.15419,-2.54729 -1.07177,-2.62451 -1.07176,-2.00699 -0.65954,-2.16124 0.32163,-2.08582 -0.69953,-1.96501 -3.26457,-0.21831 2.68158,33.5134 -44.18823,3.05645 -4.4305,-71.93894 44.42144,-3.7115 1.51571,33.84075 5.47978,-0.43663 2.56505,-2.72907 c 0,0 1.98204,-1.7467 2.44841,-1.96501 0.46637,-0.21831 3.38116,-1.41913 3.38116,-1.41913 l 2.56502,-0.10913 2.44843,-0.21831 2.44842,2.40157 c 0,0 1.98208,0.43663 2.56503,0.43663 0.58295,0 2.09864,1.31001 2.09864,1.31001 l 0.34977,2.07413 39.87439,-0.54588 h 65.64113 l 84.64561,-0.21831 1.1659,-1.52826 1.6323,-1.31 2.68162,-0.87332 1.86547,-1.20082 c 0,0 1.51568,-1.52822 2.09862,-1.74662 0.58296,-0.2183 2.44843,-0.1091 2.44843,-0.1091 0,0 0.81614,0.5458 1.98209,0.6549 1.16589,0.1092 1.74885,-0.3274 2.565,0 0.81614,0.32757 2.09866,1.41913 2.09866,1.41913 l 1.98205,0.7642 c 2.24079,4.37306 1.34706,-0.77684 3.05909,-0.17858 0.52258,0.18262 1.23511,-1.87095 2.42072,0.56064 l 0.81612,-31.60289 h 45.82058 l -0.46636,75.65047 -44.42147,-0.10906 -1.16591,-31.00252 -2.7982,-0.98251 -1.04932,0.87326 0.58295,2.62001 c 0,0 -0.34977,1.41913 -0.46636,1.96488 -0.11659,0.54588 -1.39911,3.27489 -1.51569,3.71158 -0.11661,0.4365 -2.15696,4.93962 -2.15696,4.93962 l -1.48655,3.05664 -1.98206,2.86554 -5.40642,7.42335 -2.80306,4.3999 c 0,0 -1.1542,1.69817 -1.64884,2.16125 -0.49467,0.46313 -2.72062,2.85604 -2.72062,2.85604 0,0 -0.90686,0.92627 -1.40152,1.54385 -0.49467,0.61758 -1.97862,1.62102 -2.22597,1.92984 -0.24732,0.30876 -2.7206,1.62088 -3.05039,1.9297 -0.32975,0.30876 -2.30839,1.4667 -2.72058,1.85255 -0.41223,0.38592 -1.40156,1.54386 -1.81376,1.85249 -0.41221,0.30888 -2.96793,1.92983 -2.96793,1.92983 l -1.89619,0.92621 -1.64885,2.31575 -1.15422,2.08415 -1.40152,2.62451 -2.96793,1.77532 -1.73131,0.92628 -2.30841,1.08078 -2.14349,1.62095 -1.48399,1.00343 -2.80304,1.54379 -1.23664,1.08084 -0.90688,1.92971 0.49466,2.08402 -1.31907,1.62101 -2.22597,0.92628 c 0,0 -1.89619,1.23503 -2.22597,1.46669 -0.32976,0.23154 -1.73127,1.00343 -2.22594,1.23503 -0.49466,0.23154 -2.63818,1.38935 -2.63818,1.38935 0,0 -1.56641,0.38605 -1.89618,0.54038 -0.32976,0.15442 -0.82442,0.0771 -1.89619,1.00352 -1.07176,0.9262 -0.82441,2.16135 -0.82441,2.16135 l -0.0825,7.25584 v 3.08767 3.16476 c 0,0.30884 -0.32978,2.08414 -0.49465,2.70172 -0.16488,0.61747 -0.65954,3.24197 -0.74199,3.62792 -0.0825,0.38594 -0.5771,2.16135 -0.5771,2.16135 0,0 -0.57709,2.47009 -0.74201,3.01045 -0.16487,0.54036 -0.49462,2.39288 -0.49462,2.39288 l -0.90689,2.70171 c 0,0 -0.16488,1.46657 -0.0825,1.7753 0.0825,0.30874 0,5.40333 0,5.40333 v 5.71217 c 0,0 -0.41223,2.23853 -0.41223,2.70167 0,0.46316 -0.0825,3.24202 -0.0825,3.55077 0,0.30877 0.49467,3.31919 0.49467,3.31919 l 0.65953,1.23505 c 0,0 2.88551,0.54033 3.2977,0.54033 0.41222,0 3.54505,0.0772 3.87483,0 0.32976,-0.0772 3.38014,0.30877 4.36946,0.30877 0.98933,0 4.12215,0.61752 4.12215,0.61752 l 2.96795,0.38596 1.48395,0.54031 2.55572,0.77192 2.22597,1.23505 2.8855,1.38941 2.3084,1.00348 1.5664,1.23505 1.40155,1.46663 1.23664,1.23504 1.81374,2.31571 c 0,0 0.82442,1.54382 1.15418,2.31572 0.32978,0.77192 0.90688,2.16133 0.98933,2.62448 0.0825,0.46315 0.49465,1.77538 0.65953,2.16134 0.16488,0.38593 0.65955,3.01043 0.65955,3.01043 l 0.49465,3.242 v 3.47357 c 0,0 -0.16487,2.31571 -0.16487,2.93322 0,0.61753 -0.57711,4.47707 -0.57711,4.47707 0,0 -0.65954,3.01042 -0.74197,3.47356 -0.0825,0.46315 -0.74201,3.24201 -0.74201,3.24201 l -6.43052,14.74338 -1.73131,4.78579 -1.48395,2.93325 -0.98933,2.62448 c 0,0 -0.90689,2.00694 -1.07177,2.47009 -0.16487,0.46315 -1.40151,3.08763 -1.56639,3.39637 -0.1649,0.30878 -0.90688,2.16135 -0.90688,2.16135 l 0.32978,1.69819 0.24731,1.621 c 0,0 0.16489,1.15786 0.32979,1.4666 0.16488,0.30878 1.31908,2.16134 1.31908,2.16134 l 2.7206,2.62449 1.97862,0.7719 2.3084,1.77537 c 0,0 0.32979,0.77192 0.90689,0.9263 0.5771,0.15437 2.63815,1.54382 2.63815,1.54382 l 1.81376,1.85257 1.07175,1.85255 0.49467,3.01046 c 0,0 -0.32979,0.92626 -0.41223,1.54378 -0.0825,0.61752 -0.5771,1.46663 -0.5771,1.46663 l -13.19085,-0.6947 -2.7206,-0.23158 -2.96795,-0.8491 -3.95727,-0.69473 c 0,0 -2.80303,-0.69471 -3.38014,-0.69471 -0.5771,0 -4.53436,-0.46314 -4.53436,-0.46314 l -2.22595,0.0772 -2.06108,-0.61755 1.23664,-1.4666 1.07177,-1.62101 c 0,0 -1.07177,-1.31223 -1.23664,-2.00693 -0.16488,-0.69473 -0.74198,-1.38945 -0.74198,-1.69819 0,-0.30878 0.24731,-1.46663 0.5771,-2.00697 0.32975,-0.54034 1.40152,-2.08416 1.40152,-2.08416 0,0 0.0825,-2.16131 0.0825,-2.70164 0,-0.54034 -0.16489,-3.55079 -0.16489,-3.55079 0,0 0.5771,-2.23852 0.82442,-2.54726 0.24735,-0.30878 1.48399,-1.08067 1.56643,-1.62101 0.0825,-0.54033 0.5771,-2.08415 0.5771,-3.01042 0,-0.92629 0.82441,-6.79275 0.82441,-6.79275 l -0.4122,-4.2455 -0.82444,-3.39639 -0.90685,-2.62445 0.0825,-3.24201 c 0,0 -0.41223,-3.0876 -0.24734,-3.62795 0.1649,-0.54033 0.82444,-2.00696 0.90688,-2.62448 0.0825,-0.61752 0.82441,-2.47009 0.90686,-2.77886 0.0825,-0.30875 0.90688,-2.31571 0.90688,-2.31571 l -0.65954,-1.00348 -2.39085,0.15437 c 0,0 -1.81374,0.77192 -2.55572,1.23507 -0.742,0.46312 -2.80306,1.77537 -2.80306,1.77537 0,0 -2.22597,1.54379 -2.55572,1.62102 -0.32979,0.0772 -4.78169,0.92626 -4.78169,0.92626 0,0 -3.21526,0.38596 -3.54504,0.38596 -0.32976,0 -7.17254,-0.15437 -7.17254,-0.15437 0,0 -5.77097,-0.61752 -6.84273,-0.61752 -1.07177,0 -5.3588,-0.23159 -5.3588,-0.23159 l -4.61678,-0.61752 z"
             id="path24668"
             sodipodi:nodetypes="cccccccccssccccccccssscsssssssssccssccsccccccccccccccccsscccccsccsssssscsscsccssssscccssssccccccccsssccccssccccccssssssccsssssccccccsssssscccsccscccccccccccccccsccccscccccccccscssccscccccccccsscccccscsssssccccccccccccccccsscsscccssscsccsccssccssscccccccccccssscccscscccccsscccsccccsccccscccccscccccssscscssscccccssscccscscscsccc" />
        </g>
        <path
           style="fill:none;stroke:#000000;stroke-width:3.2747;stroke-linecap:butt;stroke-linejoin:miter;stroke-miterlimit:4;stroke-dasharray:none;stroke-opacity:1;fill-opacity:1"
           d="m 413.63136,-980.52341 3.9641,-1.7467 2.33184,-2.07407 1.16592,-1.96489 1.16591,-1.20088 45.93716,-0.87325 49.90126,-0.10919 29.14792,-0.43669 66.34072,-0.21831 3.84752,3.49326 1.3991,1.74657 0.34978,2.07414 -1.28252,2.07407 c 0,0 -1.04932,1.41913 -1.6323,2.07413 -0.58294,0.65507 -1.63226,1.63745 -1.63226,1.63745 l -1.98207,1.96501 -2.05383,1.98927 -2.39084,1.85255 c 0,0 -2.22596,1.92977 -2.34962,2.12279 -0.12366,0.19296 -2.43207,1.50522 -2.7206,1.69817 -0.28857,0.19296 -4.57558,2.47007 -4.57558,2.47007 0,0 -2.76182,2.19995 -2.96795,2.35433 -0.2061,0.15444 -2.26715,1.31225 -2.7206,1.62101 -0.45344,0.30876 -4.58866,3.35795 -4.58866,3.35795 l -1.4574,1.80126 -1.3991,1.8012 c 0,0 -1.34081,1.69207 -1.51569,1.96488 -0.17487,0.27294 -1.10761,1.41919 -1.51568,1.85582 -0.40807,0.43675 -1.92376,1.91038 -2.50674,2.34701 -0.58295,0.43663 -2.04034,1.41913 -2.565,1.91038 -0.52466,0.49126 -3.08969,3.38408 -3.08969,3.38408 0,0 -2.85649,1.41913 -3.26457,1.63745 -0.40808,0.21831 -2.33184,0.60044 -2.9148,0.76419 -0.58294,0.16369 -2.85649,0.3275 -3.8475,0.49125 -0.99103,0.16369 -3.26457,0.60032 -3.96414,0.81869 -0.69954,0.21832 -3.49774,0.76413 -4.37218,1.14619 -0.87445,0.38213 -3.78922,1.36464 -3.78922,1.36464 0,0 -2.68162,0.92788 -3.08969,1.14613 -0.40808,0.21844 -3.03137,0.60044 -3.78924,0.9825 -0.75785,0.38213 -2.85649,1.52832 -3.26457,1.80126 -0.40808,0.27281 -1.80717,1.85582 -2.33182,2.29245 -0.52467,0.43663 -1.74889,0.87325 -1.74889,0.87325 l -1.28252,0.0552 -0.87442,-0.65507 c 0,0 0.29147,-1.69194 0.34976,-2.01951 0.0583,-0.32744 -0.0583,-1.96488 -0.0583,-1.96488 0,0 -0.46637,-0.92788 -0.58296,-1.14626 -0.11657,-0.21838 -1.39909,-0.81875 -1.39909,-0.81875 0,0 -0.75786,-0.60038 -0.81615,-1.20082 -0.0583,-0.60038 -0.0583,-1.14619 0,-1.52826 0.0583,-0.38206 0.2332,-2.01951 0.2332,-2.51076 0,-0.49125 0.0583,-2.34701 0,-2.83826 -0.0583,-0.49125 -0.34978,-3.00202 -0.34978,-3.00202 l -1.63231,-2.18332 -2.7982,-2.23782 c 0,0 -3.55602,-1.63745 -3.9641,-1.8012 -0.40808,-0.16368 -4.1973,-0.87325 -4.60538,-0.92788 -0.40807,-0.0552 -3.03137,-0.38212 -4.19731,-0.3275 -1.16589,0.0546 -4.1973,0.87325 -4.43046,0.92788 -0.2332,0.0552 -2.21525,0.60044 -2.62333,0.87325 -0.40808,0.27294 -2.04034,1.69207 -2.39012,2.01964 -0.34979,0.32744 -1.6323,1.74657 -2.04037,2.40151 -0.40805,0.65507 -1.4574,3.1112 -1.51569,3.60245 -0.0583,0.49126 -0.17488,1.91045 -0.11659,2.56539 0.0583,0.65494 -0.0583,3.1657 -0.11659,3.65696 -0.0583,0.49125 -0.11661,1.20081 -0.40806,1.96501 -0.2915,0.76406 -0.93275,1.80119 -1.10764,2.34694 -0.17488,0.54582 -0.40805,1.69207 -0.34976,2.01958 0.0583,0.32743 0.40808,1.20075 0.58296,1.74656 0.17487,0.54588 0.23316,1.52826 0.23316,1.52826 l -0.81612,0.16382 -1.3991,0.16375 c 0,0 -1.16594,0.10918 -1.57401,0.3275 -0.40807,0.21831 -1.04931,0.32744 -1.04931,0.32744 0,0 -1.34082,-1.20069 -1.80719,-1.52826 -0.46636,-0.3275 -2.04033,-1.30994 -2.39012,-1.63745 -0.34977,-0.32756 -1.28252,-1.47375 -2.27354,-1.80119 -0.99103,-0.3275 -2.39012,-0.81876 -3.03137,-0.98251 -0.64127,-0.16368 -2.50675,-0.54581 -3.32287,-0.65494 -0.81614,-0.10925 -1.98206,-0.32756 -1.98206,-0.32756 0,0 -1.74887,-0.76407 -2.33185,-0.92788 -0.58295,-0.16369 -2.97307,-0.87325 -3.67264,-0.98251 -0.69953,-0.10912 -2.565,-0.382 -3.32286,-0.43662 -0.75783,-0.0552 -4.37218,-0.16369 -4.37218,-0.16369 l -2.15696,-0.9825 -3.55603,-2.56539 -3.32286,-1.96488 -2.44844,-2.01964 -3.55603,-3.22033 -1.57402,-2.45613 c 0,0 -1.51568,-2.40164 -1.57397,-2.67445 -0.0583,-0.27294 -0.40807,-1.41913 -0.99103,-1.69207 -0.58295,-0.27294 -3.78922,-2.61995 -3.78922,-2.61995 0,0 -2.27355,-1.91039 -2.50675,-2.01951 -0.23316,-0.10913 -3.78922,-2.23782 -3.78922,-2.23782 l -3.20628,-2.40164 -4.43046,-2.67458 -2.68163,-1.692 -2.04034,-1.91039 -2.15695,-1.58282 -2.04036,-2.12876 c 0,0 -1.98207,-1.52819 -2.44844,-1.91038 -0.46637,-0.382 -2.27351,-1.91026 -2.50671,-2.07407 -0.23316,-0.16375 -2.33184,-1.4737 -2.33184,-1.4737 z"
           id="path24783" />
      </g>
      <path
         style="fill:#00a3ff;stroke:none;stroke-width:9.28115;stroke-miterlimit:4;stroke-dasharray:none;fill-opacity:1"
         d="m 222.28572,907.08237 c 0,-2.34076 0.72914,-3.96729 2.51463,-5.60949 1.38304,-1.27206 3.3202,-4.10389 4.30479,-6.29297 1.4409,-3.2036 2.61979,-4.29698 6.04239,-5.60408 3.0454,-1.16305 6.83456,-4.28516 13.35105,-11.00071 9.55865,-9.85065 10.97465,-12.1468 11.0241,-17.87632 0.0167,-1.9335 0.66066,-4.3488 1.43102,-5.36733 2.30998,-3.05406 1.62797,-6.25826 -3.46403,-16.27443 -5.80979,-11.42812 -9.88064,-24.83787 -11.3738,-37.46642 -0.6035,-5.1042 -1.94208,-13.35878 -2.9746,-18.34351 -2.47599,-11.95334 -4.91706,-45.65862 -4.14562,-57.24096 0.66613,-10.00129 1.99142,-13.39937 9.76235,-25.03114 6.28391,-9.40595 10.8411,-13.16232 20.80796,-17.15149 10.36596,-4.14891 11.63183,-4.39374 28.22149,-5.45847 13.36375,-0.8577 16.29392,-1.62116 17.51946,-4.56477 0.38836,-0.93282 1.08879,-11.03948 1.55651,-22.45923 0.74394,-18.16415 0.66407,-21.04756 -0.6381,-23.0349 -1.10136,-1.6809 -1.69617,-6.45365 -2.28707,-18.35146 -0.51955,-10.46104 -1.31356,-17.41319 -2.27236,-19.89582 -3.53983,-9.16581 -5.55071,-15.91621 -7.5311,-25.28142 -1.87734,-8.87792 -2.53162,-10.466 -5.75295,-13.96367 -4.07397,-4.42347 -9.88724,-7.24032 -18.37815,-8.90525 -5.39613,-1.05809 -6.16139,-1.57199 -13.35623,-8.96921 -4.19767,-4.31574 -10.20797,-10.04749 -13.35622,-12.73723 -10.28365,-8.78591 -24.96394,-23.54842 -27.56483,-27.71923 -1.40019,-2.24534 -4.91286,-5.89445 -7.80593,-8.10913 -6.42522,-4.91859 -31.40554,-29.29121 -35.41679,-34.5552 -3.77261,-4.95082 -17.06339,-25.00614 -21.69549,-32.73769 -1.9854,-3.31388 -4.35567,-6.74834 -5.26727,-7.63213 -2.00936,-1.94804 -7.7389,-11.78951 -9.5444,-16.39413 -0.7201,-1.83648 -2.31336,-5.37097 -3.54058,-7.85441 -1.31752,-2.66619 -2.36773,-6.76848 -2.56445,-10.01716 -0.18323,-3.02601 -0.78823,-6.61718 -1.34445,-7.9804 -0.92234,-2.26057 -1.62301,-2.52986 -7.96605,-3.06164 -3.82512,-0.32068 -7.09074,-0.44708 -7.25693,-0.28089 -0.1662,0.1662 1.02625,17.57705 2.6499,38.69079 1.62364,21.11374 2.81463,38.48457 2.64662,38.60184 -0.76163,0.53168 -87.830345,6.36634 -88.280796,5.91589 -0.618216,-0.61822 -9.816228,-155.45278 -9.267343,-156.00166 0.634777,-0.63478 88.173629,-8.04812 88.709289,-7.51246 0.27029,0.27029 1.21499,17.72844 2.09932,38.79589 l 1.60788,38.30445 8.6142,-0.60672 8.61421,-0.60672 5.7241,-5.505 c 6.90898,-6.64453 8.94482,-7.77115 15.74118,-8.71109 4.8851,-0.67561 5.43147,-0.54815 7.92137,1.84795 1.4709,1.41549 4.47608,3.02105 6.67819,3.56793 3.45384,0.85773 4.04668,1.38194 4.31575,3.81606 0.17155,1.55196 0.60086,3.08785 0.95402,3.41309 0.35315,0.32524 95.89624,0.24867 212.31796,-0.17014 l 211.67587,-0.76149 2.75085,-3.33727 c 1.51298,-1.8355 4.26712,-3.83768 6.1203,-4.44929 1.8532,-0.6116 5.32792,-2.60695 7.72163,-4.43411 4.26876,-3.25842 4.4408,-3.30083 8.97585,-2.21289 2.54301,0.61006 5.04382,0.84952 5.55737,0.53214 1.08056,-0.66783 7.12262,3.08287 10.61534,6.58965 3.11355,3.12607 5.23329,3.03649 8.39113,-0.35461 1.41337,-1.51777 3.90376,-3.04101 5.53421,-3.38497 2.9298,-0.61807 2.9716,-0.71015 3.57755,-7.87853 0.33722,-3.98923 0.61455,-12.66204 0.6163,-19.27291 0.002,-6.61087 0.28362,-18.78136 0.62637,-27.04552 l 0.62319,-15.02575 h 46.12041 46.12042 l -0.002,54.61741 c -9.6e-4,30.03958 -0.28479,67.17465 -0.63071,82.52238 l -0.62895,27.90497 H 713.5948 669.05445 l -0.60805,-13.59473 c -0.33444,-7.4771 -0.89524,-23.14934 -1.24624,-34.82719 -0.40643,-13.52226 -1.01765,-21.52777 -1.68318,-22.04567 -0.57476,-0.44726 -3.16613,-1.51985 -5.7586,-2.38354 l -4.71359,-1.57033 -2.66867,2.55675 c -2.44103,2.33865 -2.6198,2.97259 -2.09572,7.43169 0.50707,4.31434 0.0686,6.10632 -3.81261,15.58263 -5.94972,14.52669 -7.44949,17.31582 -15.18425,28.23824 -3.67648,5.19164 -8.55221,12.48986 -10.83497,16.21827 -6.45088,10.53618 -16.98445,22.07169 -25.12684,27.5169 -3.94407,2.63759 -8.89466,6.37191 -11.0013,8.29849 -2.10665,1.92658 -5.6409,4.5205 -7.85389,5.76427 -4.15986,2.33798 -6.87512,5.7722 -11.0006,13.91344 -2.06121,4.06762 -3.45433,5.33137 -9.89151,8.97303 -4.12082,2.33124 -9.26911,5.54571 -11.44064,7.14327 -2.17153,1.59756 -5.90757,4.06235 -8.3023,5.47732 -4.97567,2.93996 -8.7677,9.11109 -7.84865,12.77288 0.43964,1.75167 -0.0158,2.60345 -2.07083,3.87302 -1.44892,0.89512 -4.55818,2.85708 -6.90947,4.3599 -2.35128,1.50281 -6.64436,3.82166 -9.54016,5.15297 -10.14001,4.66177 -11.60645,5.52254 -12.72329,7.46833 -0.71062,1.2381 -1.34451,9.52128 -1.71971,22.47222 -0.56289,19.43011 -0.78103,21.26569 -4.13808,34.82158 -3.46837,14.00545 -3.56379,14.88331 -4.48009,41.21631 -0.89853,25.82277 -0.86039,27.07753 0.94738,31.16427 2.13483,4.82614 1.81198,4.73946 21.61877,5.80441 10.52902,0.56613 22.98592,2.5713 28.14347,4.53023 9.88512,3.75455 20.89732,10.39558 25.28174,15.24642 8.93302,9.88332 13.24151,23.5886 13.1411,41.8017 -0.0978,17.74389 -2.49777,27.82238 -12.14975,51.02251 -4.36988,10.50371 -8.25915,20.17093 -8.64283,21.4827 -0.70595,2.41357 -5.58003,14.21435 -11.61033,28.11008 -2.99508,6.90163 -3.23778,8.12693 -2.64536,13.35622 0.35873,3.16662 1.22878,7.15728 1.93344,8.86814 1.48841,3.6138 10.60566,13.58463 12.42166,13.58463 0.67904,0 3.29993,1.72519 5.82421,3.83375 2.52428,2.10857 6.40298,5.34861 8.61934,7.20009 4.1421,3.4602 6.81497,9.28397 5.65194,12.31476 -0.52324,1.36353 -2.05563,1.47592 -12.77026,0.93654 -13.57411,-0.68333 -16.69705,-1.11754 -33.25531,-4.62384 -6.34671,-1.34395 -13.75691,-2.52203 -16.46712,-2.61795 l -4.92764,-0.17441 1.51621,-2.31404 c 1.33134,-2.03188 1.34663,-2.50778 0.12539,-3.90289 -0.76496,-0.87387 -2.04799,-2.8882 -2.85119,-4.47628 -1.37338,-2.71548 -1.32371,-3.11319 0.83409,-6.67811 1.97966,-3.27063 2.29511,-4.99134 2.29933,-12.54214 0.005,-7.852 0.24119,-9.03229 2.30408,-11.4839 2.75685,-3.27632 4.21238,-10.30993 4.99273,-24.12639 0.47335,-8.38108 0.22475,-11.41954 -1.52209,-18.60332 -1.14831,-4.72237 -2.26916,-11.91639 -2.49079,-15.98669 -0.35455,-6.51186 -0.0168,-8.53804 2.81252,-16.87306 3.20894,-9.45331 3.21185,-9.47843 1.43801,-12.39528 -3.2049,-5.27004 -10.19298,-3.82101 -22.81349,4.73056 -5.06669,3.43316 -9.30526,4.73278 -20.02717,6.14067 -5.07639,0.66658 -44.87243,-1.91047 -52.45839,-3.39702 -2.8859,-0.56553 -11.14608,-1.24539 -18.35597,-1.51082 l -13.10888,-0.48259 -11.21853,3.66884 c -11.10454,3.63158 -11.36876,3.66832 -26.00577,3.61581 -11.65065,-0.0418 -16.81085,-0.50363 -24.3274,-2.17727 -15.11522,-3.36556 -15.7285,-3.65433 -22.10054,-10.4057 l -5.88227,-6.23245 -6.19064,5.46887 c -4.87168,4.30369 -6.39495,6.31371 -7.14957,9.43423 -2.09625,8.66844 -2.20332,12.05712 -0.64299,20.34882 1.45209,7.71646 2.17311,32.66655 0.99894,34.56641 -0.23466,0.37967 -0.52052,6.24356 -0.63526,13.03086 -0.1863,11.01997 0.0122,12.77036 1.85504,16.35711 1.63299,3.17835 2.06366,5.689 2.06366,12.03058 0,6.97505 0.3092,8.46964 2.38504,11.52856 2.92326,4.30768 3.01365,6.93079 0.33698,9.77997 -1.70992,1.82013 -1.84499,2.42474 -0.81807,3.6621 0.6765,0.81513 0.95266,1.75938 0.61369,2.09835 -0.33897,0.33896 -5.01519,0.94741 -10.39161,1.35208 -9.05205,0.68135 -20.61007,3.12671 -27.09752,5.7331 -1.49168,0.5993 -9.68839,1.30355 -18.2149,1.565 l -15.50276,0.47537 v -3.29666 z M 358.56126,510.15709 c 3.77421,-0.63879 6.25964,-1.56451 6.60302,-2.45935 0.30286,-0.78924 0.071,-3.72197 -0.51535,-6.51719 -0.93092,-4.43818 -0.83024,-5.61518 0.79447,-9.2881 1.19764,-2.70748 2.05295,-7.38265 2.40073,-13.12274 0.70365,-11.61322 2.29447,-15.85419 7.92133,-21.11746 3.82,-3.57315 5.67534,-4.52106 11.39579,-5.82214 11.37642,-2.58751 25.23464,0.53041 34.20279,7.6952 5.31932,4.2497 6.45431,7.97011 5.69496,18.66778 -0.65608,9.24288 0.41731,13.03216 4.27669,15.09764 1.78189,0.95364 1.93682,1.61738 1.37178,5.87684 -0.55169,4.15888 -0.35263,5.10445 1.48672,7.06236 3.48621,3.7109 10.10601,2.56693 14.67257,-2.53557 3.42089,-3.82237 8.63334,-6.4655 21.59199,-10.94886 15.78683,-5.46184 23.91837,-7.64739 33.73869,-9.0681 10.13544,-1.4663 17.5991,-4.88633 22.64429,-10.37618 2.22519,-2.4213 6.19646,-6.16719 8.82504,-8.32419 2.62859,-2.15699 8.01307,-8.16729 11.96551,-13.35622 4.39201,-5.76601 9.42595,-11.10369 12.94631,-13.72748 11.59027,-8.63844 15.09618,-11.06529 22.7403,-15.74127 13.85221,-8.47351 30.68857,-24.13892 38.18966,-35.5336 2.21058,-3.35801 2.58534,-4.77396 2.19056,-8.27649 -0.54308,-4.81815 -2.04658,-6.99696 -9.57833,-13.88056 l -5.36239,-4.90092 -134.80286,0.98341 c -169.8337,1.23898 -227.89627,1.81608 -262.24551,2.60653 l -27.27097,0.62757 -4.1524,5.67169 c -3.41681,4.66697 -5.38812,6.28314 -11.12816,9.12339 -3.83668,1.89845 -6.97578,3.79263 -6.97578,4.20929 0,1.99453 6.82412,9.63679 12.15581,13.61317 3.27509,2.44257 8.27133,6.66117 11.10276,9.37468 8.00497,7.67159 13.92695,12.44285 22.62708,18.23034 13.87754,9.23158 20.21879,13.67109 26.94979,18.86759 3.59223,2.77329 6.828,5.257 7.19059,5.51935 0.36259,0.26236 2.57518,3.86241 4.91686,8.00012 4.88412,8.63017 12.37393,16.03103 24.60012,24.30801 13.90335,9.41241 13.80514,9.37083 23.38259,9.9007 5.63553,0.31177 11.45998,1.35936 16.3779,2.94575 4.19767,1.35405 11.17908,3.32014 15.51426,4.36908 7.99889,1.93541 7.93245,1.89538 19.78433,11.92135 1.57413,1.33162 3.50601,2.17989 4.29307,1.88504 0.78707,-0.29484 4.15459,-0.99706 7.48339,-1.56046 z"
         id="path35435"
         transform="matrix(0.45439363,0,0,0.43535697,429.32453,-1259.8158)" />
      <text
         xml:space="preserve"
         style="font-style:normal;font-variant:normal;font-weight:600;font-stretch:normal;font-size:61.2814px;line-height:1.25;font-family:'Bookman Old Style';-inkscape-font-specification:'Bookman Old Style, Semi-Bold';font-variant-ligatures:normal;font-variant-caps:normal;font-variant-numeric:normal;font-variant-east-asian:normal;fill:#000000;fill-opacity:1;stroke:none;stroke-width:1.53204"
         id="text41406"
         x="534.66602"
         y="-1150.6134"><tspan
           id="tspan41404"
           style="font-style:normal;font-variant:normal;font-weight:600;font-stretch:normal;font-size:61.2814px;font-family:'Bookman Old Style';-inkscape-font-specification:'Bookman Old Style, Semi-Bold';font-variant-ligatures:normal;font-variant-caps:normal;font-variant-numeric:normal;font-variant-east-asian:normal;stroke-width:1.53204">JFDI</tspan></text>
      <ellipse
         style="fill:none;fill-opacity:1;stroke:#000000;stroke-width:5.43886;stroke-miterlimit:4;stroke-dasharray:none;stroke-opacity:1"
         id="path46849"
         cx="611.4903"
         cy="-1030.5479"
         rx="245.76762"
         ry="235.35735" />
    </g>
  </g>
</svg>
